<?xml version="1.0" encoding="utf-8"?>
<!-- Generator: Adobe Illustrator 28.0.0, SVG Export Plug-In . SVG Version: 6.00 Build 0)  -->
<svg version="1.1" id="Capa_1" xmlns="http://www.w3.org/2000/svg" xmlns:xlink="http://www.w3.org/1999/xlink" x="0px" y="0px"
	 viewBox="0 0 512 512" style="enable-background:new 0 0 512 512;" xml:space="preserve">
<style type="text/css">
	.st0{fill:#252328;}
	.st1{fill:#FFFFFF;}
	.st2{fill:#6E2D81;}
</style>
<g>
	<path class="st0" d="M481.88,384.87l-163.63-75.26l60.01-144.69h-53.96l56.27-132.21h-96.05l-79.2,186.01l-16.09-53.8h-47.48
		L30.12,423.36h96.47l24.46-59.15l39.43,115.08l29.05-68.26l8.01,12.24l88.82,0.6l-23.32,53.57L481.88,384.87z"/>
	<polygon class="st1" points="446.68,385.31 321.84,327.89 338.95,364.68 290.11,364.68 283.19,354.72 355.64,180.02 301.44,180.02 
		357.72,47.81 294.49,47.81 202.82,263.12 177.97,180.02 151.66,180.02 53.1,408.26 116.5,408.26 152.38,321.49 192.01,437.15 
		216.7,379.13 235.75,408.23 339.56,408.45 323.3,445.79 	"/>
	<g>
		<polygon class="st2" points="66.23,399.63 157.34,188.65 171.55,188.65 201.4,288.49 300.2,56.44 344.66,56.44 192.88,413.06 
			153.14,297.07 110.73,399.63 		"/>
		<g>
			<polygon class="st2" points="426.56,385.56 339.57,345.54 352.48,373.31 285.59,373.31 273.41,355.76 342.72,188.65 
				300.47,188.65 222.96,372.94 240.44,399.63 352.81,399.63 352.78,399.69 352.77,399.73 340.59,427.71 			"/>
		</g>
	</g>
</g>
</svg>
