<?xml version="1.0" encoding="utf-8"?>
<!-- Generator: Adobe Illustrator 28.0.0, SVG Export Plug-In . SVG Version: 6.00 Build 0)  -->
<svg version="1.1" id="Capa_1" xmlns="http://www.w3.org/2000/svg" xmlns:xlink="http://www.w3.org/1999/xlink" x="0px" y="0px"
	 viewBox="0 0 1920 1080" style="enable-background:new 0 0 1920 1080;" xml:space="preserve">
<style type="text/css">
	.st0{fill:#D2C0DA;}
	.st1{fill:none;stroke:#6E2D81;stroke-width:3;stroke-miterlimit:10;}
	.st2{fill:none;stroke:#6E2D81;stroke-width:4;stroke-miterlimit:10;}
	.st3{fill:#2A2927;}
</style>
<polygon class="st0" points="1920,0 0,0 0,1080 479,1080 479,216.5 1920,216 "/>
<line class="st1" x1="479.75" y1="-0.5" x2="479.75" y2="1080"/>
<line class="st2" x1="960" y1="0" x2="960" y2="1080"/>
<line class="st2" x1="1440.25" y1="0" x2="1440.25" y2="1080"/>
<line class="st2" x1="1920" y1="215.95" x2="1.26" y2="215.95"/>
<line class="st2" x1="1920" y1="431.85" x2="0.36" y2="431.85"/>
<line class="st2" x1="1920" y1="647.75" x2="0.36" y2="647.75"/>
<line class="st2" x1="1920" y1="863.65" x2="0.36" y2="863.65"/>
<g>
	<g>
		<path class="st3" d="M184.41,130.26V93.48h-14.4v-5.22h34.74v5.22h-14.4v36.78H184.41z"/>
		<path class="st3" d="M219.75,130.62c-2.36,0-4.43-0.4-6.21-1.2c-1.78-0.8-3.15-1.91-4.11-3.33c-0.96-1.42-1.44-3.03-1.44-4.83
			c0-1.72,0.41-3.28,1.23-4.68c0.82-1.4,2.16-2.52,4.02-3.36s4.37-1.26,7.53-1.26h10.08v4.14h-9.84c-2.88,0-4.82,0.48-5.82,1.44
			c-1,0.96-1.5,2.12-1.5,3.48c0,1.56,0.62,2.81,1.86,3.75c1.24,0.94,2.96,1.41,5.16,1.41c2.16,0,4.05-0.48,5.67-1.44
			c1.62-0.96,2.79-2.36,3.51-4.2l1.14,3.96c-0.76,1.88-2.1,3.37-4.02,4.47C225.09,130.07,222.67,130.62,219.75,130.62z
			 M230.19,130.26v-6.72l-0.3-1.26v-11.46c0-2.44-0.71-4.33-2.13-5.67c-1.42-1.34-3.55-2.01-6.39-2.01c-1.88,0-3.72,0.31-5.52,0.93
			c-1.8,0.62-3.32,1.45-4.56,2.49l-2.4-4.32c1.64-1.32,3.61-2.33,5.91-3.03c2.3-0.7,4.71-1.05,7.23-1.05
			c4.36,0,7.72,1.06,10.08,3.18c2.36,2.12,3.54,5.36,3.54,9.72v19.2H230.19z"/>
		<path class="st3" d="M246.33,130.26V85.74h5.76v44.52H246.33z"/>
		<path class="st3" d="M263.07,130.26V85.74h5.76v44.52H263.07z"/>
		<path class="st3" d="M289.11,130.62c-2.36,0-4.43-0.4-6.21-1.2c-1.78-0.8-3.15-1.91-4.11-3.33c-0.96-1.42-1.44-3.03-1.44-4.83
			c0-1.72,0.41-3.28,1.23-4.68c0.82-1.4,2.16-2.52,4.02-3.36s4.37-1.26,7.53-1.26h10.08v4.14h-9.84c-2.88,0-4.82,0.48-5.82,1.44
			c-1,0.96-1.5,2.12-1.5,3.48c0,1.56,0.62,2.81,1.86,3.75c1.24,0.94,2.96,1.41,5.16,1.41c2.16,0,4.05-0.48,5.67-1.44
			c1.62-0.96,2.79-2.36,3.51-4.2l1.14,3.96c-0.76,1.88-2.1,3.37-4.02,4.47C294.45,130.07,292.03,130.62,289.11,130.62z
			 M299.55,130.26v-6.72l-0.3-1.26v-11.46c0-2.44-0.71-4.33-2.13-5.67c-1.42-1.34-3.55-2.01-6.39-2.01c-1.88,0-3.72,0.31-5.52,0.93
			c-1.8,0.62-3.32,1.45-4.56,2.49l-2.4-4.32c1.64-1.32,3.61-2.33,5.91-3.03c2.3-0.7,4.71-1.05,7.23-1.05
			c4.36,0,7.72,1.06,10.08,3.18c2.36,2.12,3.54,5.36,3.54,9.72v19.2H299.55z"/>
	</g>
</g>
<g>
	<g>
		<path class="st3" d="M239.91,346.74c-3.2,0-6.26-0.49-9.18-1.47c-2.92-0.98-5.22-2.25-6.9-3.81l2.22-4.68
			c1.6,1.4,3.64,2.56,6.12,3.48c2.48,0.92,5.06,1.38,7.74,1.38c2.44,0,4.42-0.28,5.94-0.84c1.52-0.56,2.64-1.33,3.36-2.31
			c0.72-0.98,1.08-2.09,1.08-3.33c0-1.44-0.47-2.6-1.41-3.48c-0.94-0.88-2.16-1.59-3.66-2.13s-3.15-1.01-4.95-1.41
			c-1.8-0.4-3.61-0.87-5.43-1.41c-1.82-0.54-3.48-1.23-4.98-2.07c-1.5-0.84-2.71-1.97-3.63-3.39c-0.92-1.42-1.38-3.25-1.38-5.49
			c0-2.16,0.57-4.15,1.71-5.97c1.14-1.82,2.9-3.28,5.28-4.38c2.38-1.1,5.41-1.65,9.09-1.65c2.44,0,4.86,0.32,7.26,0.96
			c2.4,0.64,4.48,1.56,6.24,2.76l-1.98,4.8c-1.8-1.2-3.7-2.07-5.7-2.61c-2-0.54-3.94-0.81-5.82-0.81c-2.36,0-4.3,0.3-5.82,0.9
			c-1.52,0.6-2.63,1.4-3.33,2.4c-0.7,1-1.05,2.12-1.05,3.36c0,1.48,0.47,2.66,1.41,3.54c0.94,0.88,2.16,1.58,3.66,2.1
			c1.5,0.52,3.15,0.99,4.95,1.41c1.8,0.42,3.61,0.89,5.43,1.41c1.82,0.52,3.48,1.2,4.98,2.04c1.5,0.84,2.71,1.96,3.63,3.36
			c0.92,1.4,1.38,3.2,1.38,5.4c0,2.12-0.58,4.09-1.74,5.91c-1.16,1.82-2.95,3.28-5.37,4.38
			C246.64,346.19,243.59,346.74,239.91,346.74z"/>
	</g>
</g>
<g>
	<g>
		<path class="st3" d="M652,334.55v-3.71l18.97-24.27h5.72l-18.81,24.27l-2.7-0.85h29.63v4.56H652z M672.62,343.66v-9.12l0.16-4.56
			v-8.06h4.98v21.73H672.62z"/>
		<path class="st3" d="M699.97,344.09c-2.62,0-5.15-0.41-7.61-1.22c-2.46-0.81-4.46-1.91-6.02-3.29l2.44-4.19
			c1.24,1.17,2.84,2.12,4.82,2.86c1.98,0.74,4.08,1.11,6.31,1.11c2.83,0,5-0.6,6.52-1.8c1.52-1.2,2.28-2.81,2.28-4.82
			c0-1.38-0.34-2.58-1.01-3.6c-0.67-1.02-1.83-1.81-3.47-2.36c-1.64-0.55-3.9-0.82-6.76-0.82h-8.43l1.96-19.4h20.94v4.61h-18.97
			l2.76-2.6l-1.54,15.32l-2.76-2.54h7.16c3.71,0,6.7,0.48,8.96,1.43c2.26,0.95,3.9,2.27,4.93,3.95c1.02,1.68,1.54,3.61,1.54,5.8
			c0,2.12-0.51,4.05-1.54,5.8c-1.02,1.75-2.57,3.15-4.64,4.19C705.77,343.57,703.15,344.09,699.97,344.09z"/>
		<path class="st3" d="M718.67,351.51l2.65-10.71l0.69,3.07c-1.03,0-1.88-0.32-2.57-0.95c-0.69-0.64-1.03-1.5-1.03-2.6
			c0-1.06,0.34-1.93,1.03-2.6c0.69-0.67,1.53-1.01,2.52-1.01c1.02,0,1.85,0.34,2.49,1.03c0.64,0.69,0.95,1.55,0.95,2.57
			c0,0.35-0.03,0.7-0.08,1.03c-0.05,0.34-0.14,0.72-0.27,1.17c-0.12,0.44-0.31,0.98-0.56,1.62l-2.49,7.37H718.67z"/>
		<path class="st3" d="M736.85,343.66l15.74-34.87l1.38,2.39h-22.05l2.65-2.6v9.22h-5.09v-11.24h27.98v3.6l-15,33.5H736.85z"/>
		<path class="st3" d="M761.55,343.66v-3.6l15.1-14.58c1.34-1.27,2.34-2.39,2.99-3.37c0.65-0.97,1.09-1.87,1.33-2.7
			c0.23-0.83,0.34-1.63,0.34-2.41c0-1.91-0.67-3.41-2.01-4.5c-1.34-1.09-3.3-1.64-5.88-1.64c-1.98,0-3.76,0.33-5.35,0.98
			c-1.59,0.65-2.97,1.67-4.13,3.05l-3.6-3.13c1.41-1.8,3.31-3.19,5.7-4.16c2.39-0.97,5.01-1.46,7.87-1.46
			c2.58,0,4.82,0.42,6.73,1.25c1.91,0.83,3.38,2.02,4.43,3.58c1.04,1.56,1.56,3.39,1.56,5.51c0,1.2-0.16,2.38-0.48,3.55
			c-0.32,1.17-0.92,2.4-1.8,3.71c-0.88,1.31-2.16,2.77-3.82,4.4l-13.46,12.98l-1.27-2.07h22.42v4.61H761.55z"/>
	</g>
</g>
<g>
	<g>
		<path class="st3" d="M1152.27,343.66l15.74-34.87l1.38,2.39h-22.05l2.65-2.6v9.22h-5.09v-11.24h27.98v3.6l-15,33.5H1152.27z"/>
		<path class="st3" d="M1183.81,343.66v-34.98l2.28,2.49h-10.65v-4.61h13.62v37.1H1183.81z"/>
		<path class="st3" d="M1197.43,351.51l2.65-10.71l0.69,3.07c-1.03,0-1.88-0.32-2.57-0.95c-0.69-0.64-1.03-1.5-1.03-2.6
			c0-1.06,0.35-1.93,1.03-2.6c0.69-0.67,1.53-1.01,2.52-1.01c1.02,0,1.85,0.34,2.49,1.03c0.64,0.69,0.95,1.55,0.95,2.57
			c0,0.35-0.03,0.7-0.08,1.03c-0.05,0.34-0.14,0.72-0.26,1.17c-0.12,0.44-0.31,0.98-0.56,1.62l-2.49,7.37H1197.43z"/>
		<path class="st3" d="M1215.45,343.66v-34.98l2.28,2.49h-10.65v-4.61h13.62v37.1H1215.45z"/>
		<path class="st3" d="M1228.22,343.66v-3.6l15.1-14.58c1.34-1.27,2.34-2.39,3-3.37c0.65-0.97,1.09-1.87,1.33-2.7
			c0.23-0.83,0.34-1.63,0.34-2.41c0-1.91-0.67-3.41-2.01-4.5c-1.34-1.09-3.3-1.64-5.88-1.64c-1.98,0-3.76,0.33-5.35,0.98
			c-1.59,0.65-2.97,1.67-4.13,3.05l-3.6-3.13c1.41-1.8,3.31-3.19,5.7-4.16c2.39-0.97,5.01-1.46,7.87-1.46
			c2.58,0,4.82,0.42,6.73,1.25c1.91,0.83,3.38,2.02,4.42,3.58c1.04,1.56,1.56,3.39,1.56,5.51c0,1.2-0.16,2.38-0.48,3.55
			c-0.32,1.17-0.92,2.4-1.8,3.71c-0.88,1.31-2.16,2.77-3.82,4.4l-13.46,12.98l-1.27-2.07h22.42v4.61H1228.22z"/>
	</g>
</g>
<g>
	<g>
		<path class="st3" d="M1622.71,344.09c-2.62,0-5.15-0.41-7.61-1.22c-2.46-0.81-4.46-1.91-6.01-3.29l2.44-4.19
			c1.24,1.17,2.84,2.12,4.82,2.86c1.98,0.74,4.1,1.11,6.36,1.11c2.76,0,4.9-0.59,6.44-1.78c1.54-1.18,2.31-2.78,2.31-4.8
			c0-1.94-0.73-3.51-2.2-4.69c-1.47-1.18-3.79-1.78-6.97-1.78h-2.97v-3.71l11.02-13.57l0.74,2.12h-20.3v-4.61h24.49v3.6
			l-10.97,13.52l-2.76-1.64h1.75c4.49,0,7.85,1.01,10.1,3.02s3.37,4.58,3.37,7.69c0,2.08-0.51,3.99-1.54,5.72
			c-1.03,1.73-2.57,3.1-4.64,4.11C1628.51,343.58,1625.89,344.09,1622.71,344.09z"/>
		<path class="st3" d="M1656.15,344.09c-3,0-5.6-0.44-7.79-1.32c-2.19-0.88-3.89-2.15-5.09-3.79s-1.8-3.58-1.8-5.8
			c0-2.19,0.57-4.05,1.72-5.59s2.82-2.7,5.01-3.5c2.19-0.79,4.84-1.19,7.95-1.19c3.11,0,5.77,0.4,7.98,1.19
			c2.21,0.79,3.89,1.97,5.06,3.52c1.17,1.56,1.75,3.41,1.75,5.56c0,2.23-0.6,4.16-1.8,5.8s-2.91,2.91-5.14,3.79
			C1661.77,343.65,1659.15,344.09,1656.15,344.09z M1656.15,325.75c-2.83,0-5.23-0.38-7.21-1.14c-1.98-0.76-3.5-1.85-4.56-3.29
			c-1.06-1.43-1.59-3.14-1.59-5.11c0-2.08,0.56-3.88,1.67-5.38c1.11-1.5,2.68-2.66,4.69-3.47c2.01-0.81,4.35-1.22,7-1.22
			c2.68,0,5.04,0.41,7.05,1.22c2.01,0.81,3.59,1.97,4.72,3.47c1.13,1.5,1.7,3.29,1.7,5.38c0,1.98-0.53,3.68-1.59,5.11
			c-1.06,1.43-2.6,2.53-4.61,3.29C1661.4,325.37,1658.98,325.75,1656.15,325.75z M1656.15,339.79c2.97,0,5.29-0.61,6.97-1.83
			c1.68-1.22,2.52-2.87,2.52-4.96c0-2.05-0.84-3.67-2.52-4.85c-1.68-1.18-4-1.78-6.97-1.78c-2.93,0-5.23,0.59-6.89,1.78
			c-1.66,1.18-2.49,2.8-2.49,4.85c0,2.08,0.83,3.74,2.49,4.96C1650.92,339.18,1653.22,339.79,1656.15,339.79z M1656.15,322.36
			c2.58,0,4.6-0.53,6.07-1.59c1.47-1.06,2.2-2.51,2.2-4.35c0-1.87-0.76-3.34-2.28-4.4s-3.52-1.59-5.99-1.59
			c-2.47,0-4.44,0.53-5.91,1.59s-2.2,2.53-2.2,4.4c0,1.84,0.72,3.29,2.15,4.35C1651.62,321.83,1653.61,322.36,1656.15,322.36z"/>
		<path class="st3" d="M1676.08,351.51l2.65-10.71l0.69,3.07c-1.03,0-1.88-0.32-2.57-0.95c-0.69-0.64-1.03-1.5-1.03-2.6
			c0-1.06,0.35-1.93,1.03-2.6c0.69-0.67,1.53-1.01,2.52-1.01c1.02,0,1.85,0.34,2.49,1.03c0.64,0.69,0.95,1.55,0.95,2.57
			c0,0.35-0.03,0.7-0.08,1.03c-0.05,0.34-0.14,0.72-0.26,1.17c-0.12,0.44-0.31,0.98-0.56,1.62l-2.49,7.37H1676.08z"/>
		<path class="st3" d="M1687.31,334.55v-3.71l18.97-24.27h5.72l-18.82,24.27l-2.7-0.85h29.63v4.56H1687.31z M1707.93,343.66v-9.12
			l0.16-4.56v-8.06h4.98v21.73H1707.93z"/>
		<path class="st3" d="M1722.72,343.66v-3.6l15.11-14.58c1.34-1.27,2.34-2.39,2.99-3.37c0.65-0.97,1.09-1.87,1.33-2.7
			c0.23-0.83,0.34-1.63,0.34-2.41c0-1.91-0.67-3.41-2.01-4.5c-1.34-1.09-3.3-1.64-5.88-1.64c-1.98,0-3.76,0.33-5.35,0.98
			c-1.59,0.65-2.97,1.67-4.13,3.05l-3.6-3.13c1.41-1.8,3.31-3.19,5.7-4.16c2.38-0.97,5.01-1.46,7.87-1.46
			c2.58,0,4.82,0.42,6.73,1.25c1.91,0.83,3.38,2.02,4.43,3.58c1.04,1.56,1.56,3.39,1.56,5.51c0,1.2-0.16,2.38-0.48,3.55
			s-0.92,2.4-1.8,3.71c-0.88,1.31-2.16,2.77-3.82,4.4l-13.46,12.98l-1.27-2.07h22.42v4.61H1722.72z"/>
	</g>
</g>
<g>
	<g>
		<path class="st3" d="M660.88,560.09c-2.62,0-5.15-0.41-7.61-1.22c-2.46-0.81-4.46-1.91-6.02-3.29l2.44-4.19
			c1.24,1.17,2.84,2.12,4.82,2.86c1.98,0.74,4.08,1.11,6.31,1.11c2.83,0,5-0.6,6.52-1.8c1.52-1.2,2.28-2.81,2.28-4.82
			c0-1.38-0.34-2.58-1.01-3.6c-0.67-1.02-1.83-1.81-3.47-2.36s-3.9-0.82-6.76-0.82h-8.43l1.96-19.4h20.94v4.61h-18.97l2.76-2.6
			l-1.54,15.32l-2.76-2.54h7.16c3.71,0,6.7,0.48,8.96,1.43c2.26,0.95,3.9,2.27,4.93,3.95c1.02,1.68,1.54,3.61,1.54,5.8
			c0,2.12-0.51,4.05-1.54,5.8c-1.02,1.75-2.57,3.15-4.64,4.19C666.68,559.57,664.06,560.09,660.88,560.09z"/>
		<path class="st3" d="M694.48,560.09c-2.9,0-5.49-0.74-7.76-2.23s-4.08-3.64-5.41-6.47c-1.33-2.83-1.99-6.25-1.99-10.28
			c0-4.03,0.66-7.45,1.99-10.28c1.32-2.83,3.13-4.98,5.41-6.47c2.28-1.48,4.87-2.23,7.76-2.23c2.86,0,5.44,0.74,7.74,2.23
			c2.3,1.48,4.1,3.64,5.41,6.47c1.31,2.83,1.96,6.25,1.96,10.28c0,4.03-0.65,7.46-1.96,10.28c-1.31,2.83-3.11,4.98-5.41,6.47
			C699.92,559.34,697.34,560.09,694.48,560.09z M694.48,555.37c1.94,0,3.65-0.53,5.11-1.59c1.47-1.06,2.61-2.65,3.45-4.77
			c0.83-2.12,1.25-4.75,1.25-7.9c0-3.14-0.42-5.78-1.25-7.9c-0.83-2.12-1.98-3.71-3.45-4.77c-1.47-1.06-3.17-1.59-5.11-1.59
			c-1.94,0-3.66,0.53-5.14,1.59c-1.48,1.06-2.64,2.65-3.47,4.77c-0.83,2.12-1.25,4.75-1.25,7.9c0,3.15,0.41,5.78,1.25,7.9
			c0.83,2.12,1.99,3.71,3.47,4.77S692.54,555.37,694.48,555.37z"/>
		<path class="st3" d="M714.94,567.51l2.65-10.71l0.69,3.07c-1.03,0-1.88-0.32-2.57-0.95c-0.69-0.64-1.03-1.5-1.03-2.6
			c0-1.06,0.34-1.92,1.03-2.6c0.69-0.67,1.53-1.01,2.52-1.01c1.02,0,1.85,0.34,2.49,1.03c0.64,0.69,0.95,1.55,0.95,2.57
			c0,0.35-0.03,0.7-0.08,1.03c-0.05,0.34-0.14,0.72-0.27,1.17c-0.12,0.44-0.31,0.98-0.56,1.62l-2.49,7.37H714.94z"/>
		<path class="st3" d="M741.17,560.09c-3,0-5.6-0.44-7.79-1.32c-2.19-0.88-3.89-2.15-5.09-3.79c-1.2-1.64-1.8-3.58-1.8-5.8
			c0-2.19,0.57-4.05,1.72-5.59c1.15-1.54,2.82-2.7,5.01-3.5c2.19-0.79,4.84-1.19,7.95-1.19c3.11,0,5.77,0.4,7.98,1.19
			c2.21,0.79,3.9,1.97,5.06,3.52s1.75,3.41,1.75,5.56c0,2.23-0.6,4.16-1.8,5.8c-1.2,1.64-2.92,2.91-5.14,3.79
			S744.18,560.09,741.17,560.09z M741.17,541.75c-2.83,0-5.23-0.38-7.21-1.14c-1.98-0.76-3.5-1.85-4.56-3.29
			c-1.06-1.43-1.59-3.14-1.59-5.11c0-2.08,0.56-3.88,1.67-5.38c1.11-1.5,2.68-2.66,4.69-3.47c2.01-0.81,4.35-1.22,7-1.22
			c2.68,0,5.03,0.41,7.05,1.22c2.01,0.81,3.59,1.97,4.72,3.47c1.13,1.5,1.7,3.29,1.7,5.38c0,1.98-0.53,3.68-1.59,5.11
			c-1.06,1.43-2.6,2.53-4.61,3.29C746.42,541.37,744,541.75,741.17,541.75z M741.17,555.79c2.97,0,5.29-0.61,6.97-1.83
			c1.68-1.22,2.52-2.87,2.52-4.96c0-2.05-0.84-3.67-2.52-4.85c-1.68-1.18-4-1.78-6.97-1.78c-2.93,0-5.23,0.59-6.89,1.78
			c-1.66,1.18-2.49,2.8-2.49,4.85c0,2.08,0.83,3.74,2.49,4.96C735.94,555.18,738.24,555.79,741.17,555.79z M741.17,538.36
			c2.58,0,4.6-0.53,6.07-1.59c1.47-1.06,2.2-2.51,2.2-4.35c0-1.87-0.76-3.34-2.28-4.4c-1.52-1.06-3.52-1.59-5.99-1.59
			c-2.47,0-4.44,0.53-5.91,1.59c-1.47,1.06-2.2,2.53-2.2,4.4c0,1.84,0.72,3.29,2.15,4.35C736.64,537.83,738.63,538.36,741.17,538.36
			z"/>
		<path class="st3" d="M775.99,560.09c-2.9,0-5.49-0.74-7.76-2.23s-4.08-3.64-5.41-6.47c-1.33-2.83-1.99-6.25-1.99-10.28
			c0-4.03,0.66-7.45,1.99-10.28c1.32-2.83,3.13-4.98,5.41-6.47c2.28-1.48,4.87-2.23,7.76-2.23c2.86,0,5.44,0.74,7.74,2.23
			c2.3,1.48,4.1,3.64,5.41,6.47c1.31,2.83,1.96,6.25,1.96,10.28c0,4.03-0.65,7.46-1.96,10.28c-1.31,2.83-3.11,4.98-5.41,6.47
			C781.43,559.34,778.86,560.09,775.99,560.09z M775.99,555.37c1.94,0,3.65-0.53,5.11-1.59c1.47-1.06,2.61-2.65,3.45-4.77
			c0.83-2.12,1.25-4.75,1.25-7.9c0-3.14-0.42-5.78-1.25-7.9c-0.83-2.12-1.98-3.71-3.45-4.77c-1.47-1.06-3.17-1.59-5.11-1.59
			c-1.94,0-3.66,0.53-5.14,1.59c-1.48,1.06-2.64,2.65-3.47,4.77c-0.83,2.12-1.25,4.75-1.25,7.9c0,3.15,0.41,5.78,1.25,7.9
			c0.83,2.12,1.99,3.71,3.47,4.77S774.05,555.37,775.99,555.37z"/>
	</g>
</g>
<g>
	<g>
		<path class="st3" d="M1138.24,559.66l15.74-34.87l1.38,2.39h-22.05l2.65-2.6v9.22h-5.09v-11.24h27.98v3.6l-15,33.5H1138.24z"/>
		<path class="st3" d="M1174.86,560.09c-2.62,0-5.15-0.41-7.61-1.22c-2.46-0.81-4.46-1.91-6.02-3.29l2.44-4.19
			c1.24,1.17,2.84,2.12,4.82,2.86c1.98,0.74,4.1,1.11,6.36,1.11c2.76,0,4.9-0.59,6.44-1.78c1.54-1.18,2.3-2.78,2.3-4.8
			c0-1.94-0.73-3.51-2.2-4.69c-1.47-1.18-3.79-1.78-6.97-1.78h-2.97v-3.71l11.02-13.57l0.74,2.12h-20.3v-4.61h24.49v3.6
			l-10.97,13.52l-2.76-1.64h1.75c4.49,0,7.85,1.01,10.1,3.02c2.24,2.01,3.37,4.58,3.37,7.68c0,2.08-0.51,3.99-1.54,5.72
			c-1.03,1.73-2.57,3.1-4.64,4.11S1178.04,560.09,1174.86,560.09z"/>
		<path class="st3" d="M1194.1,567.51l2.65-10.71l0.69,3.07c-1.03,0-1.88-0.32-2.57-0.95c-0.69-0.64-1.03-1.5-1.03-2.6
			c0-1.06,0.35-1.92,1.03-2.6c0.69-0.67,1.53-1.01,2.52-1.01c1.02,0,1.85,0.34,2.49,1.03c0.64,0.69,0.95,1.55,0.95,2.57
			c0,0.35-0.03,0.7-0.08,1.03c-0.05,0.34-0.14,0.72-0.26,1.17c-0.12,0.44-0.31,0.98-0.56,1.62l-2.49,7.37H1194.1z"/>
		<path class="st3" d="M1221.45,560.09c-3.29,0-6.1-0.72-8.43-2.17c-2.33-1.45-4.11-3.54-5.33-6.28c-1.22-2.74-1.83-6.09-1.83-10.04
			c0-4.2,0.74-7.75,2.23-10.65c1.48-2.9,3.55-5.09,6.2-6.57c2.65-1.48,5.69-2.23,9.12-2.23c1.77,0,3.45,0.18,5.06,0.53
			c1.61,0.35,3,0.9,4.16,1.64l-2.01,4.13c-0.95-0.67-2.04-1.13-3.26-1.38c-1.22-0.25-2.5-0.37-3.84-0.37
			c-3.78,0-6.78,1.17-9.01,3.52c-2.23,2.35-3.34,5.84-3.34,10.47c0,0.74,0.03,1.62,0.11,2.65c0.07,1.03,0.25,2.03,0.53,3.02
			l-1.8-1.8c0.53-1.62,1.37-3,2.52-4.11c1.15-1.11,2.53-1.94,4.13-2.49c1.61-0.55,3.35-0.82,5.22-0.82c2.47,0,4.66,0.46,6.57,1.38
			c1.91,0.92,3.41,2.22,4.5,3.9c1.1,1.68,1.64,3.67,1.64,5.96c0,2.37-0.58,4.43-1.75,6.2c-1.17,1.77-2.74,3.13-4.72,4.08
			C1226.14,559.61,1223.92,560.09,1221.45,560.09z M1221.23,555.79c1.62,0,3.05-0.3,4.27-0.9c1.22-0.6,2.18-1.44,2.89-2.52
			c0.71-1.08,1.06-2.34,1.06-3.79c0-2.19-0.76-3.93-2.28-5.22c-1.52-1.29-3.59-1.93-6.2-1.93c-1.7,0-3.18,0.32-4.45,0.95
			c-1.27,0.64-2.27,1.49-2.99,2.57c-0.72,1.08-1.09,2.31-1.09,3.68c0,1.27,0.33,2.45,1.01,3.52c0.67,1.08,1.66,1.95,2.97,2.62
			C1217.72,555.46,1219.32,555.79,1221.23,555.79z"/>
		<path class="st3" d="M1254.14,560.09c-3.29,0-6.09-0.72-8.43-2.17c-2.33-1.45-4.11-3.54-5.33-6.28
			c-1.22-2.74-1.83-6.09-1.83-10.04c0-4.2,0.74-7.75,2.23-10.65c1.48-2.9,3.55-5.09,6.2-6.57c2.65-1.48,5.69-2.23,9.12-2.23
			c1.77,0,3.45,0.18,5.06,0.53c1.61,0.35,2.99,0.9,4.16,1.64l-2.01,4.13c-0.96-0.67-2.04-1.13-3.26-1.38
			c-1.22-0.25-2.5-0.37-3.84-0.37c-3.78,0-6.78,1.17-9.01,3.52c-2.23,2.35-3.34,5.84-3.34,10.47c0,0.74,0.04,1.62,0.11,2.65
			c0.07,1.03,0.25,2.03,0.53,3.02l-1.8-1.8c0.53-1.62,1.37-3,2.52-4.11c1.15-1.11,2.53-1.94,4.13-2.49
			c1.61-0.55,3.35-0.82,5.22-0.82c2.47,0,4.66,0.46,6.57,1.38c1.91,0.92,3.41,2.22,4.51,3.9c1.09,1.68,1.64,3.67,1.64,5.96
			c0,2.37-0.58,4.43-1.75,6.2c-1.17,1.77-2.74,3.13-4.72,4.08C1258.84,559.61,1256.62,560.09,1254.14,560.09z M1253.93,555.79
			c1.62,0,3.05-0.3,4.27-0.9s2.18-1.44,2.89-2.52c0.71-1.08,1.06-2.34,1.06-3.79c0-2.19-0.76-3.93-2.28-5.22
			c-1.52-1.29-3.59-1.93-6.2-1.93c-1.7,0-3.18,0.32-4.45,0.95c-1.27,0.64-2.27,1.49-2.99,2.57c-0.72,1.08-1.09,2.31-1.09,3.68
			c0,1.27,0.34,2.45,1.01,3.52c0.67,1.08,1.66,1.95,2.97,2.62C1250.42,555.46,1252.03,555.79,1253.93,555.79z"/>
	</g>
</g>
<g>
	<g>
		<path class="st3" d="M1621.31,550.55v-3.71l18.97-24.27h5.72l-18.81,24.27l-2.7-0.85h29.63v4.56H1621.31z M1641.93,559.66v-9.12
			l0.16-4.56v-8.06h4.98v21.73H1641.93z"/>
		<path class="st3" d="M1663.55,559.66v-34.98l2.28,2.49h-10.65v-4.61h13.62v37.1H1663.55z"/>
		<path class="st3" d="M1677.17,567.51l2.65-10.71l0.69,3.07c-1.03,0-1.88-0.32-2.57-0.95c-0.69-0.64-1.03-1.5-1.03-2.6
			c0-1.06,0.35-1.92,1.03-2.6c0.69-0.67,1.53-1.01,2.52-1.01c1.02,0,1.85,0.34,2.49,1.03c0.64,0.69,0.95,1.55,0.95,2.57
			c0,0.35-0.03,0.7-0.08,1.03c-0.05,0.34-0.14,0.72-0.26,1.17c-0.12,0.44-0.31,0.98-0.56,1.62l-2.49,7.37H1677.17z"/>
		<path class="st3" d="M1699.01,560.09c-1.73,0-3.4-0.18-5.01-0.53c-1.61-0.35-3.01-0.9-4.21-1.64l2.01-4.13
			c0.99,0.64,2.09,1.09,3.31,1.35s2.5,0.4,3.84,0.4c3.75,0,6.73-1.17,8.96-3.52c2.23-2.35,3.34-5.84,3.34-10.47
			c0-0.74-0.04-1.62-0.11-2.65c-0.07-1.02-0.23-2.03-0.48-3.02l1.75,1.8c-0.5,1.63-1.32,2.99-2.46,4.11
			c-1.15,1.11-2.53,1.94-4.13,2.49c-1.61,0.55-3.37,0.82-5.27,0.82c-2.44,0-4.61-0.46-6.52-1.38c-1.91-0.92-3.41-2.22-4.51-3.9
			c-1.1-1.68-1.64-3.67-1.64-5.96c0-2.4,0.57-4.48,1.72-6.23s2.72-3.1,4.72-4.05c2-0.95,4.21-1.43,6.65-1.43
			c3.36,0,6.19,0.72,8.51,2.17c2.31,1.45,4.07,3.54,5.27,6.28c1.2,2.74,1.8,6.09,1.8,10.04c0,4.21-0.74,7.76-2.23,10.65
			c-1.48,2.9-3.53,5.09-6.15,6.57S1702.5,560.09,1699.01,560.09z M1701.45,540.79c1.7,0,3.19-0.32,4.48-0.95
			c1.29-0.64,2.3-1.5,3.02-2.6c0.72-1.09,1.09-2.31,1.09-3.66c0-1.31-0.34-2.49-1.01-3.55c-0.67-1.06-1.66-1.93-2.97-2.6
			c-1.31-0.67-2.93-1.01-4.88-1.01c-1.59,0-3,0.3-4.24,0.9c-1.24,0.6-2.2,1.43-2.89,2.49s-1.03,2.33-1.03,3.82
			c0,2.19,0.76,3.93,2.28,5.22C1696.82,540.15,1698.87,540.79,1701.45,540.79z"/>
		<path class="st3" d="M1727.89,559.66v-34.98l2.28,2.49h-10.65v-4.61h13.62v37.1H1727.89z"/>
	</g>
</g>
<g>
	<g>
		<path class="st3" d="M663.95,776.09c-2.62,0-5.15-0.41-7.61-1.22c-2.46-0.81-4.46-1.91-6.02-3.29l2.44-4.19
			c1.24,1.17,2.84,2.12,4.82,2.86c1.98,0.74,4.08,1.11,6.31,1.11c2.83,0,5-0.6,6.52-1.8c1.52-1.2,2.28-2.81,2.28-4.82
			c0-1.38-0.34-2.58-1.01-3.6c-0.67-1.02-1.83-1.81-3.47-2.36s-3.9-0.82-6.76-0.82h-8.43l1.96-19.4h20.94v4.61h-18.97l2.76-2.6
			l-1.54,15.32l-2.76-2.54h7.16c3.71,0,6.7,0.48,8.96,1.43c2.26,0.95,3.9,2.27,4.93,3.95c1.02,1.68,1.54,3.61,1.54,5.8
			c0,2.12-0.51,4.05-1.54,5.8c-1.02,1.75-2.57,3.15-4.64,4.19C669.76,775.57,667.13,776.09,663.95,776.09z"/>
		<path class="st3" d="M694.37,776.09c-2.62,0-5.15-0.41-7.61-1.22c-2.46-0.81-4.46-1.91-6.02-3.29l2.44-4.19
			c1.24,1.17,2.84,2.12,4.82,2.86c1.98,0.74,4.08,1.11,6.31,1.11c2.83,0,5-0.6,6.52-1.8c1.52-1.2,2.28-2.81,2.28-4.82
			c0-1.38-0.34-2.58-1.01-3.6c-0.67-1.02-1.83-1.81-3.47-2.36s-3.9-0.82-6.76-0.82h-8.43l1.96-19.4h20.94v4.61h-18.97l2.76-2.6
			l-1.54,15.32l-2.76-2.54H693c3.71,0,6.7,0.48,8.96,1.43c2.26,0.95,3.9,2.27,4.93,3.95c1.02,1.68,1.54,3.61,1.54,5.8
			c0,2.12-0.51,4.05-1.54,5.8c-1.02,1.75-2.57,3.15-4.64,4.19C700.18,775.57,697.55,776.09,694.37,776.09z"/>
		<path class="st3" d="M713.08,783.51l2.65-10.71l0.69,3.07c-1.03,0-1.88-0.32-2.57-0.96c-0.69-0.63-1.03-1.5-1.03-2.6
			c0-1.06,0.34-1.93,1.03-2.6c0.69-0.67,1.53-1.01,2.52-1.01c1.02,0,1.85,0.34,2.49,1.03c0.64,0.69,0.95,1.55,0.95,2.57
			c0,0.35-0.03,0.7-0.08,1.03c-0.05,0.34-0.14,0.72-0.27,1.17c-0.12,0.44-0.31,0.98-0.56,1.62l-2.49,7.37H713.08z"/>
		<path class="st3" d="M739.32,776.09c-3,0-5.6-0.44-7.79-1.32c-2.19-0.88-3.89-2.15-5.09-3.79c-1.2-1.64-1.8-3.58-1.8-5.8
			c0-2.19,0.57-4.05,1.72-5.59c1.15-1.54,2.82-2.7,5.01-3.5c2.19-0.79,4.84-1.19,7.95-1.19c3.11,0,5.77,0.4,7.98,1.19
			c2.21,0.79,3.9,1.97,5.06,3.52s1.75,3.41,1.75,5.56c0,2.23-0.6,4.16-1.8,5.8c-1.2,1.64-2.92,2.91-5.14,3.79
			S742.32,776.09,739.32,776.09z M739.32,757.75c-2.83,0-5.23-0.38-7.21-1.14c-1.98-0.76-3.5-1.86-4.56-3.29s-1.59-3.14-1.59-5.11
			c0-2.08,0.56-3.88,1.67-5.38c1.11-1.5,2.68-2.66,4.69-3.47c2.01-0.81,4.35-1.22,7-1.22c2.68,0,5.03,0.41,7.05,1.22
			c2.01,0.81,3.59,1.97,4.72,3.47c1.13,1.5,1.7,3.29,1.7,5.38c0,1.98-0.53,3.68-1.59,5.11c-1.06,1.43-2.6,2.53-4.61,3.29
			S742.14,757.75,739.32,757.75z M739.32,771.79c2.97,0,5.29-0.61,6.97-1.83c1.68-1.22,2.52-2.87,2.52-4.96
			c0-2.05-0.84-3.67-2.52-4.85c-1.68-1.18-4-1.78-6.97-1.78c-2.93,0-5.23,0.59-6.89,1.78c-1.66,1.18-2.49,2.8-2.49,4.85
			c0,2.08,0.83,3.74,2.49,4.96C734.09,771.18,736.38,771.79,739.32,771.79z M739.32,754.36c2.58,0,4.6-0.53,6.07-1.59
			c1.47-1.06,2.2-2.51,2.2-4.35c0-1.87-0.76-3.34-2.28-4.4c-1.52-1.06-3.52-1.59-5.99-1.59c-2.47,0-4.44,0.53-5.91,1.59
			c-1.47,1.06-2.2,2.53-2.2,4.4c0,1.84,0.72,3.29,2.15,4.35C734.79,753.83,736.77,754.36,739.32,754.36z"/>
		<path class="st3" d="M773.45,776.09c-3,0-5.6-0.44-7.79-1.32c-2.19-0.88-3.89-2.15-5.09-3.79c-1.2-1.64-1.8-3.58-1.8-5.8
			c0-2.19,0.57-4.05,1.72-5.59c1.15-1.54,2.82-2.7,5.01-3.5c2.19-0.79,4.84-1.19,7.95-1.19c3.11,0,5.77,0.4,7.98,1.19
			c2.21,0.79,3.9,1.97,5.06,3.52s1.75,3.41,1.75,5.56c0,2.23-0.6,4.16-1.8,5.8c-1.2,1.64-2.92,2.91-5.14,3.79
			S776.45,776.09,773.45,776.09z M773.45,757.75c-2.83,0-5.23-0.38-7.21-1.14c-1.98-0.76-3.5-1.86-4.56-3.29s-1.59-3.14-1.59-5.11
			c0-2.08,0.56-3.88,1.67-5.38c1.11-1.5,2.68-2.66,4.69-3.47c2.01-0.81,4.35-1.22,7-1.22c2.68,0,5.03,0.41,7.05,1.22
			c2.01,0.81,3.59,1.97,4.72,3.47c1.13,1.5,1.7,3.29,1.7,5.38c0,1.98-0.53,3.68-1.59,5.11c-1.06,1.43-2.6,2.53-4.61,3.29
			S776.28,757.75,773.45,757.75z M773.45,771.79c2.97,0,5.29-0.61,6.97-1.83c1.68-1.22,2.52-2.87,2.52-4.96
			c0-2.05-0.84-3.67-2.52-4.85c-1.68-1.18-4-1.78-6.97-1.78c-2.93,0-5.23,0.59-6.89,1.78c-1.66,1.18-2.49,2.8-2.49,4.85
			c0,2.08,0.83,3.74,2.49,4.96C768.22,771.18,770.52,771.79,773.45,771.79z M773.45,754.36c2.58,0,4.6-0.53,6.07-1.59
			c1.47-1.06,2.2-2.51,2.2-4.35c0-1.87-0.76-3.34-2.28-4.4c-1.52-1.06-3.52-1.59-5.99-1.59c-2.47,0-4.44,0.53-5.91,1.59
			c-1.47,1.06-2.2,2.53-2.2,4.4c0,1.84,0.72,3.29,2.15,4.35C768.92,753.83,770.91,754.36,773.45,754.36z"/>
	</g>
</g>
<g>
	<g>
		<path class="st3" d="M1137.86,775.66l15.74-34.87l1.38,2.38h-22.05l2.65-2.6v9.22h-5.09v-11.24h27.98v3.6l-15,33.5H1137.86z"/>
		<path class="st3" d="M1178.72,776.09c-3.29,0-6.1-0.72-8.43-2.17c-2.33-1.45-4.11-3.54-5.33-6.28c-1.22-2.74-1.83-6.09-1.83-10.04
			c0-4.21,0.74-7.76,2.23-10.65c1.48-2.9,3.55-5.09,6.2-6.57c2.65-1.48,5.69-2.23,9.12-2.23c1.77,0,3.45,0.18,5.06,0.53
			c1.61,0.35,3,0.9,4.16,1.64l-2.01,4.13c-0.95-0.67-2.04-1.13-3.26-1.38c-1.22-0.25-2.5-0.37-3.84-0.37
			c-3.78,0-6.78,1.17-9.01,3.52c-2.23,2.35-3.34,5.84-3.34,10.47c0,0.74,0.03,1.63,0.11,2.65c0.07,1.03,0.25,2.03,0.53,3.02
			l-1.8-1.8c0.53-1.62,1.37-3,2.52-4.11c1.15-1.11,2.53-1.94,4.13-2.49c1.61-0.55,3.35-0.82,5.22-0.82c2.47,0,4.66,0.46,6.57,1.38
			c1.91,0.92,3.41,2.22,4.5,3.9c1.09,1.68,1.64,3.67,1.64,5.96c0,2.37-0.58,4.44-1.75,6.2c-1.17,1.77-2.74,3.13-4.72,4.08
			C1183.42,775.61,1181.19,776.09,1178.72,776.09z M1178.51,771.79c1.62,0,3.05-0.3,4.27-0.9c1.22-0.6,2.18-1.44,2.89-2.52
			c0.71-1.08,1.06-2.34,1.06-3.79c0-2.19-0.76-3.93-2.28-5.22c-1.52-1.29-3.59-1.93-6.2-1.93c-1.7,0-3.18,0.32-4.45,0.95
			c-1.27,0.64-2.27,1.49-2.99,2.57c-0.72,1.08-1.09,2.31-1.09,3.68c0,1.27,0.33,2.45,1.01,3.52c0.67,1.08,1.66,1.95,2.97,2.62
			C1174.99,771.46,1176.6,771.79,1178.51,771.79z"/>
		<path class="st3" d="M1196.1,783.51l2.65-10.71l0.69,3.07c-1.03,0-1.88-0.32-2.57-0.96c-0.69-0.63-1.03-1.5-1.03-2.6
			c0-1.06,0.34-1.93,1.03-2.6c0.69-0.67,1.53-1.01,2.52-1.01c1.02,0,1.85,0.34,2.49,1.03c0.64,0.69,0.95,1.55,0.95,2.57
			c0,0.35-0.03,0.7-0.08,1.03s-0.14,0.72-0.27,1.17c-0.12,0.44-0.31,0.98-0.56,1.62l-2.49,7.37H1196.1z"/>
		<path class="st3" d="M1207.29,775.66v-3.6l15.1-14.58c1.34-1.27,2.34-2.39,3-3.37c0.65-0.97,1.09-1.87,1.33-2.7
			c0.23-0.83,0.34-1.63,0.34-2.41c0-1.91-0.67-3.41-2.01-4.51c-1.34-1.09-3.3-1.64-5.88-1.64c-1.98,0-3.76,0.33-5.35,0.98
			c-1.59,0.65-2.97,1.67-4.13,3.05l-3.6-3.13c1.41-1.8,3.31-3.19,5.7-4.16c2.39-0.97,5.01-1.46,7.87-1.46
			c2.58,0,4.82,0.42,6.73,1.25s3.38,2.02,4.42,3.58c1.04,1.56,1.56,3.39,1.56,5.51c0,1.2-0.16,2.38-0.48,3.55
			c-0.32,1.17-0.92,2.4-1.8,3.71c-0.88,1.31-2.16,2.77-3.82,4.4l-13.46,12.99l-1.27-2.07h22.42v4.61H1207.29z"/>
		<path class="st3" d="M1253.45,776.09c-2.9,0-5.49-0.74-7.77-2.22c-2.28-1.48-4.08-3.64-5.41-6.47c-1.33-2.83-1.99-6.25-1.99-10.28
			c0-4.03,0.66-7.46,1.99-10.28c1.33-2.83,3.13-4.98,5.41-6.46c2.28-1.48,4.87-2.23,7.77-2.23c2.86,0,5.44,0.74,7.74,2.23
			c2.3,1.48,4.1,3.64,5.41,6.46c1.31,2.83,1.96,6.25,1.96,10.28c0,4.03-0.65,7.46-1.96,10.28c-1.31,2.83-3.11,4.98-5.41,6.47
			C1258.89,775.34,1256.31,776.09,1253.45,776.09z M1253.45,771.37c1.94,0,3.65-0.53,5.11-1.59c1.47-1.06,2.62-2.65,3.45-4.77
			c0.83-2.12,1.25-4.75,1.25-7.9s-0.42-5.78-1.25-7.9s-1.98-3.71-3.45-4.77c-1.47-1.06-3.17-1.59-5.11-1.59
			c-1.94,0-3.66,0.53-5.14,1.59c-1.48,1.06-2.64,2.65-3.47,4.77s-1.25,4.75-1.25,7.9s0.42,5.78,1.25,7.9
			c0.83,2.12,1.99,3.71,3.47,4.77C1249.79,770.84,1251.5,771.37,1253.45,771.37z"/>
	</g>
</g>
<g>
	<g>
		<path class="st3" d="M1612,766.55v-3.71l18.97-24.27h5.72l-18.81,24.27l-2.7-0.85h29.63v4.56H1612z M1632.62,775.66v-9.12
			l0.16-4.56v-8.06h4.98v21.73H1632.62z"/>
		<path class="st3" d="M1659.97,776.09c-2.62,0-5.15-0.41-7.61-1.22c-2.46-0.81-4.46-1.91-6.02-3.29l2.44-4.19
			c1.24,1.17,2.84,2.12,4.82,2.86c1.98,0.74,4.08,1.11,6.31,1.11c2.83,0,5-0.6,6.52-1.8c1.52-1.2,2.28-2.81,2.28-4.82
			c0-1.38-0.34-2.58-1.01-3.6c-0.67-1.02-1.83-1.81-3.47-2.36c-1.64-0.55-3.89-0.82-6.76-0.82h-8.43l1.96-19.4h20.93v4.61h-18.97
			l2.76-2.6l-1.54,15.32l-2.76-2.54h7.15c3.71,0,6.7,0.48,8.96,1.43c2.26,0.95,3.9,2.27,4.93,3.95c1.02,1.68,1.54,3.61,1.54,5.8
			c0,2.12-0.51,4.05-1.54,5.8c-1.03,1.75-2.57,3.15-4.64,4.19C1665.77,775.57,1663.15,776.09,1659.97,776.09z"/>
		<path class="st3" d="M1678.67,783.51l2.65-10.71l0.69,3.07c-1.03,0-1.88-0.32-2.57-0.96c-0.69-0.63-1.03-1.5-1.03-2.6
			c0-1.06,0.34-1.93,1.03-2.6c0.69-0.67,1.53-1.01,2.52-1.01c1.02,0,1.86,0.34,2.49,1.03c0.64,0.69,0.96,1.55,0.96,2.57
			c0,0.35-0.03,0.7-0.08,1.03s-0.14,0.72-0.27,1.17c-0.12,0.44-0.31,0.98-0.56,1.62l-2.49,7.37H1678.67z"/>
		<path class="st3" d="M1696.85,775.66l15.74-34.87l1.38,2.38h-22.05l2.65-2.6v9.22h-5.09v-11.24h27.98v3.6l-15,33.5H1696.85z"/>
		<path class="st3" d="M1721.55,775.66v-3.6l15.1-14.58c1.34-1.27,2.34-2.39,3-3.37c0.65-0.97,1.09-1.87,1.32-2.7
			c0.23-0.83,0.34-1.63,0.34-2.41c0-1.91-0.67-3.41-2.01-4.51c-1.34-1.09-3.3-1.64-5.88-1.64c-1.98,0-3.76,0.33-5.35,0.98
			c-1.59,0.65-2.97,1.67-4.13,3.05l-3.6-3.13c1.41-1.8,3.31-3.19,5.7-4.16c2.38-0.97,5.01-1.46,7.87-1.46
			c2.58,0,4.82,0.42,6.73,1.25s3.38,2.02,4.42,3.58c1.04,1.56,1.56,3.39,1.56,5.51c0,1.2-0.16,2.38-0.48,3.55s-0.92,2.4-1.8,3.71
			c-0.88,1.31-2.16,2.77-3.82,4.4l-13.46,12.99l-1.27-2.07h22.42v4.61H1721.55z"/>
	</g>
</g>
<g>
	<g>
		<path class="st3" d="M665.38,992.09c-3.29,0-6.1-0.72-8.43-2.17c-2.33-1.45-4.11-3.54-5.33-6.28c-1.22-2.74-1.83-6.09-1.83-10.04
			c0-4.21,0.74-7.76,2.23-10.65c1.48-2.9,3.55-5.09,6.2-6.57c2.65-1.48,5.69-2.23,9.12-2.23c1.77,0,3.45,0.18,5.06,0.53
			c1.61,0.35,2.99,0.9,4.16,1.64l-2.01,4.13c-0.95-0.67-2.04-1.13-3.26-1.38c-1.22-0.25-2.5-0.37-3.84-0.37
			c-3.78,0-6.78,1.17-9.01,3.52c-2.23,2.35-3.34,5.84-3.34,10.47c0,0.74,0.03,1.63,0.11,2.65c0.07,1.03,0.25,2.03,0.53,3.02
			l-1.8-1.8c0.53-1.62,1.37-3,2.52-4.11c1.15-1.11,2.53-1.94,4.13-2.49c1.61-0.55,3.35-0.82,5.22-0.82c2.47,0,4.66,0.46,6.57,1.38
			c1.91,0.92,3.41,2.22,4.5,3.9c1.09,1.68,1.64,3.67,1.64,5.96c0,2.37-0.58,4.44-1.75,6.2c-1.17,1.77-2.74,3.13-4.72,4.08
			C670.08,991.61,667.86,992.09,665.38,992.09z M665.17,987.79c1.62,0,3.05-0.3,4.27-0.9c1.22-0.6,2.18-1.44,2.89-2.52
			c0.71-1.08,1.06-2.34,1.06-3.79c0-2.19-0.76-3.93-2.28-5.22c-1.52-1.29-3.59-1.93-6.2-1.93c-1.7,0-3.18,0.32-4.45,0.95
			c-1.27,0.64-2.27,1.49-2.99,2.57c-0.72,1.08-1.09,2.31-1.09,3.68c0,1.27,0.33,2.45,1.01,3.52c0.67,1.08,1.66,1.95,2.97,2.62
			C661.66,987.46,663.26,987.79,665.17,987.79z"/>
		<path class="st3" d="M697.66,992.09c-2.9,0-5.49-0.74-7.76-2.22c-2.28-1.48-4.08-3.64-5.41-6.47c-1.33-2.83-1.99-6.25-1.99-10.28
			c0-4.03,0.66-7.46,1.99-10.28c1.32-2.83,3.13-4.98,5.41-6.46c2.28-1.48,4.87-2.23,7.76-2.23c2.86,0,5.44,0.74,7.74,2.23
			c2.3,1.48,4.1,3.64,5.41,6.46c1.31,2.83,1.96,6.25,1.96,10.28c0,4.03-0.65,7.46-1.96,10.28c-1.31,2.83-3.11,4.98-5.41,6.47
			C703.1,991.34,700.52,992.09,697.66,992.09z M697.66,987.37c1.94,0,3.65-0.53,5.11-1.59c1.47-1.06,2.61-2.65,3.45-4.77
			c0.83-2.12,1.25-4.75,1.25-7.9s-0.42-5.78-1.25-7.9c-0.83-2.12-1.98-3.71-3.45-4.77c-1.47-1.06-3.17-1.59-5.11-1.59
			c-1.94,0-3.66,0.53-5.14,1.59c-1.48,1.06-2.64,2.65-3.47,4.77c-0.83,2.12-1.25,4.75-1.25,7.9s0.41,5.78,1.25,7.9
			c0.83,2.12,1.99,3.71,3.47,4.77C694,986.84,695.72,987.37,697.66,987.37z"/>
		<path class="st3" d="M718.12,999.51l2.65-10.71l0.69,3.07c-1.03,0-1.88-0.32-2.57-0.96c-0.69-0.63-1.03-1.5-1.03-2.6
			c0-1.06,0.34-1.93,1.03-2.6c0.69-0.67,1.53-1.01,2.52-1.01c1.02,0,1.85,0.34,2.49,1.03c0.64,0.69,0.95,1.55,0.95,2.57
			c0,0.35-0.03,0.7-0.08,1.03c-0.05,0.34-0.14,0.72-0.27,1.17c-0.12,0.44-0.31,0.98-0.56,1.62l-2.49,7.37H718.12z"/>
		<path class="st3" d="M739.95,992.09c-1.73,0-3.4-0.18-5.01-0.53c-1.61-0.35-3.01-0.9-4.21-1.64l2.01-4.13
			c0.99,0.64,2.09,1.09,3.31,1.35c1.22,0.27,2.5,0.4,3.84,0.4c3.74,0,6.73-1.17,8.96-3.53c2.23-2.35,3.34-5.84,3.34-10.47
			c0-0.74-0.04-1.62-0.11-2.65c-0.07-1.02-0.23-2.03-0.48-3.02l1.75,1.8c-0.5,1.62-1.32,2.99-2.46,4.11
			c-1.15,1.11-2.53,1.94-4.13,2.49c-1.61,0.55-3.37,0.82-5.27,0.82c-2.44,0-4.61-0.46-6.52-1.38c-1.91-0.92-3.41-2.22-4.5-3.89
			c-1.1-1.68-1.64-3.67-1.64-5.96c0-2.4,0.57-4.48,1.72-6.23c1.15-1.75,2.72-3.1,4.72-4.05c2-0.96,4.21-1.43,6.65-1.43
			c3.36,0,6.19,0.72,8.51,2.17c2.31,1.45,4.07,3.54,5.27,6.28c1.2,2.74,1.8,6.09,1.8,10.04c0,4.21-0.74,7.76-2.23,10.65
			c-1.48,2.9-3.53,5.09-6.15,6.57C746.51,991.34,743.45,992.09,739.95,992.09z M742.39,972.79c1.7,0,3.19-0.32,4.48-0.95
			c1.29-0.64,2.3-1.5,3.02-2.6c0.72-1.1,1.09-2.31,1.09-3.66c0-1.31-0.34-2.49-1.01-3.55c-0.67-1.06-1.66-1.92-2.97-2.6
			c-1.31-0.67-2.93-1.01-4.88-1.01c-1.59,0-3,0.3-4.24,0.9c-1.24,0.6-2.2,1.43-2.89,2.49c-0.69,1.06-1.03,2.33-1.03,3.82
			c0,2.19,0.76,3.93,2.28,5.22C737.76,972.15,739.81,972.79,742.39,972.79z"/>
		<path class="st3" d="M778.17,992.09c-3.29,0-6.1-0.72-8.43-2.17c-2.33-1.45-4.11-3.54-5.33-6.28c-1.22-2.74-1.83-6.09-1.83-10.04
			c0-4.21,0.74-7.76,2.23-10.65c1.48-2.9,3.55-5.09,6.2-6.57c2.65-1.48,5.69-2.23,9.12-2.23c1.77,0,3.45,0.18,5.06,0.53
			c1.61,0.35,2.99,0.9,4.16,1.64l-2.01,4.13c-0.95-0.67-2.04-1.13-3.26-1.38c-1.22-0.25-2.5-0.37-3.84-0.37
			c-3.78,0-6.78,1.17-9.01,3.52c-2.23,2.35-3.34,5.84-3.34,10.47c0,0.74,0.03,1.63,0.11,2.65c0.07,1.03,0.25,2.03,0.53,3.02
			l-1.8-1.8c0.53-1.62,1.37-3,2.52-4.11c1.15-1.11,2.53-1.94,4.13-2.49c1.61-0.55,3.35-0.82,5.22-0.82c2.47,0,4.66,0.46,6.57,1.38
			c1.91,0.92,3.41,2.22,4.5,3.9c1.09,1.68,1.64,3.67,1.64,5.96c0,2.37-0.58,4.44-1.75,6.2c-1.17,1.77-2.74,3.13-4.72,4.08
			C782.86,991.61,780.64,992.09,778.17,992.09z M777.95,987.79c1.62,0,3.05-0.3,4.27-0.9c1.22-0.6,2.18-1.44,2.89-2.52
			c0.71-1.08,1.06-2.34,1.06-3.79c0-2.19-0.76-3.93-2.28-5.22c-1.52-1.29-3.59-1.93-6.2-1.93c-1.7,0-3.18,0.32-4.45,0.95
			c-1.27,0.64-2.27,1.49-2.99,2.57c-0.72,1.08-1.09,2.31-1.09,3.68c0,1.27,0.33,2.45,1.01,3.52c0.67,1.08,1.66,1.95,2.97,2.62
			C774.44,987.46,776.05,987.79,777.95,987.79z"/>
	</g>
</g>
<g>
	<g>
		<path class="st3" d="M1136.45,991.66l15.74-34.87l1.38,2.38h-22.05l2.65-2.6v9.22h-5.09v-11.24h27.98v3.6l-15,33.5H1136.45z"/>
		<path class="st3" d="M1176.2,992.09c-3,0-5.6-0.44-7.79-1.32s-3.89-2.15-5.09-3.79c-1.2-1.64-1.8-3.58-1.8-5.8
			c0-2.19,0.57-4.05,1.72-5.59c1.15-1.54,2.82-2.7,5.01-3.5c2.19-0.79,4.84-1.19,7.95-1.19s5.77,0.4,7.98,1.19
			c2.21,0.79,3.9,1.97,5.06,3.52s1.75,3.41,1.75,5.56c0,2.23-0.6,4.16-1.8,5.8c-1.2,1.64-2.92,2.91-5.14,3.79
			C1181.82,991.64,1179.21,992.09,1176.2,992.09z M1176.2,973.75c-2.83,0-5.23-0.38-7.21-1.14c-1.98-0.76-3.5-1.86-4.56-3.29
			s-1.59-3.14-1.59-5.11c0-2.08,0.56-3.88,1.67-5.38c1.11-1.5,2.68-2.66,4.69-3.47c2.01-0.81,4.35-1.22,7-1.22
			c2.69,0,5.04,0.41,7.05,1.22c2.01,0.81,3.59,1.97,4.72,3.47c1.13,1.5,1.7,3.29,1.7,5.38c0,1.98-0.53,3.68-1.59,5.11
			s-2.6,2.53-4.61,3.29C1181.45,973.37,1179.03,973.75,1176.2,973.75z M1176.2,987.79c2.97,0,5.29-0.61,6.97-1.83
			c1.68-1.22,2.52-2.87,2.52-4.96c0-2.05-0.84-3.67-2.52-4.85c-1.68-1.18-4-1.78-6.97-1.78c-2.93,0-5.23,0.59-6.89,1.78
			c-1.66,1.18-2.49,2.8-2.49,4.85c0,2.08,0.83,3.74,2.49,4.96C1170.97,987.18,1173.27,987.79,1176.2,987.79z M1176.2,970.36
			c2.58,0,4.6-0.53,6.07-1.59s2.2-2.51,2.2-4.35c0-1.87-0.76-3.34-2.28-4.4c-1.52-1.06-3.52-1.59-5.99-1.59s-4.44,0.53-5.91,1.59
			c-1.47,1.06-2.2,2.53-2.2,4.4c0,1.84,0.72,3.29,2.15,4.35C1171.67,969.83,1173.66,970.36,1176.2,970.36z"/>
		<path class="st3" d="M1196.13,999.51l2.65-10.71l0.69,3.07c-1.03,0-1.88-0.32-2.57-0.96c-0.69-0.63-1.03-1.5-1.03-2.6
			c0-1.06,0.34-1.93,1.03-2.6c0.69-0.67,1.53-1.01,2.52-1.01c1.02,0,1.85,0.34,2.49,1.03c0.64,0.69,0.95,1.55,0.95,2.57
			c0,0.35-0.03,0.7-0.08,1.03s-0.14,0.72-0.27,1.17c-0.12,0.44-0.31,0.98-0.56,1.62l-2.49,7.37H1196.13z"/>
		<path class="st3" d="M1214.31,991.66l15.74-34.87l1.38,2.38h-22.05l2.65-2.6v9.22h-5.09v-11.24h27.98v3.6l-15,33.5H1214.31z"/>
		<path class="st3" d="M1239.06,982.55v-3.71l18.97-24.27h5.72l-18.81,24.27l-2.7-0.85h29.63v4.56H1239.06z M1259.68,991.66v-9.12
			l0.16-4.56v-8.06h4.98v21.73H1259.68z"/>
	</g>
</g>
<g>
	<g>
		<path class="st3" d="M1611.55,982.55v-3.71l18.97-24.27h5.72l-18.82,24.27l-2.7-0.85h29.63v4.56H1611.55z M1632.17,991.66v-9.12
			l0.16-4.56v-8.06h4.98v21.73H1632.17z"/>
		<path class="st3" d="M1657.61,992.09c-1.73,0-3.4-0.18-5.01-0.53c-1.61-0.35-3.01-0.9-4.21-1.64l2.01-4.13
			c0.99,0.64,2.09,1.09,3.31,1.35c1.22,0.27,2.5,0.4,3.84,0.4c3.75,0,6.73-1.17,8.96-3.53c2.23-2.35,3.34-5.84,3.34-10.47
			c0-0.74-0.04-1.62-0.11-2.65c-0.07-1.02-0.23-2.03-0.48-3.02l1.75,1.8c-0.5,1.62-1.32,2.99-2.46,4.11
			c-1.15,1.11-2.53,1.94-4.13,2.49c-1.61,0.55-3.37,0.82-5.27,0.82c-2.44,0-4.61-0.46-6.52-1.38c-1.91-0.92-3.41-2.22-4.5-3.89
			c-1.1-1.68-1.64-3.67-1.64-5.96c0-2.4,0.57-4.48,1.72-6.23c1.15-1.75,2.72-3.1,4.72-4.05c2-0.96,4.21-1.43,6.65-1.43
			c3.36,0,6.19,0.72,8.51,2.17c2.31,1.45,4.07,3.54,5.27,6.28c1.2,2.74,1.8,6.09,1.8,10.04c0,4.21-0.74,7.76-2.23,10.65
			c-1.48,2.9-3.53,5.09-6.15,6.57C1664.16,991.34,1661.11,992.09,1657.61,992.09z M1660.05,972.79c1.7,0,3.19-0.32,4.48-0.95
			s2.3-1.5,3.02-2.6s1.09-2.31,1.09-3.66c0-1.31-0.34-2.49-1.01-3.55c-0.67-1.06-1.66-1.92-2.97-2.6c-1.31-0.67-2.93-1.01-4.88-1.01
			c-1.59,0-3,0.3-4.24,0.9c-1.24,0.6-2.2,1.43-2.89,2.49c-0.69,1.06-1.03,2.33-1.03,3.82c0,2.19,0.76,3.93,2.28,5.22
			C1655.42,972.15,1657.47,972.79,1660.05,972.79z"/>
		<path class="st3" d="M1680.5,999.51l2.65-10.71l0.69,3.07c-1.03,0-1.88-0.32-2.57-0.96c-0.69-0.63-1.03-1.5-1.03-2.6
			c0-1.06,0.34-1.93,1.03-2.6c0.69-0.67,1.53-1.01,2.52-1.01c1.03,0,1.86,0.34,2.49,1.03s0.95,1.55,0.95,2.57
			c0,0.35-0.03,0.7-0.08,1.03c-0.05,0.34-0.14,0.72-0.26,1.17s-0.31,0.98-0.56,1.62l-2.49,7.37H1680.5z"/>
		<path class="st3" d="M1704.25,992.09c-2.62,0-5.15-0.41-7.61-1.22c-2.46-0.81-4.46-1.91-6.02-3.29l2.44-4.19
			c1.24,1.17,2.84,2.12,4.82,2.86c1.98,0.74,4.08,1.11,6.31,1.11c2.83,0,5-0.6,6.52-1.8c1.52-1.2,2.28-2.81,2.28-4.82
			c0-1.38-0.34-2.58-1.01-3.6c-0.67-1.02-1.83-1.81-3.47-2.36c-1.64-0.55-3.9-0.82-6.76-0.82h-8.43l1.96-19.4h20.94v4.61h-18.97
			l2.76-2.6l-1.54,15.32l-2.76-2.54h7.16c3.71,0,6.7,0.48,8.96,1.43c2.26,0.95,3.9,2.27,4.93,3.95c1.03,1.68,1.54,3.61,1.54,5.8
			c0,2.12-0.51,4.05-1.54,5.8c-1.02,1.75-2.57,3.15-4.64,4.19C1710.05,991.57,1707.43,992.09,1704.25,992.09z"/>
		<path class="st3" d="M1734.03,992.09c-2.62,0-5.15-0.41-7.61-1.22c-2.46-0.81-4.46-1.91-6.01-3.29l2.44-4.19
			c1.24,1.17,2.84,2.12,4.82,2.86c1.98,0.74,4.1,1.11,6.36,1.11c2.76,0,4.9-0.59,6.44-1.78c1.54-1.18,2.31-2.78,2.31-4.8
			c0-1.94-0.73-3.51-2.2-4.69c-1.47-1.18-3.79-1.78-6.97-1.78h-2.97v-3.71l11.02-13.57l0.74,2.12h-20.3v-4.61h24.49v3.6
			l-10.97,13.52l-2.76-1.64h1.75c4.49,0,7.85,1.01,10.1,3.02s3.37,4.58,3.37,7.68c0,2.09-0.51,3.99-1.54,5.72
			c-1.03,1.73-2.57,3.1-4.64,4.11C1739.84,991.58,1737.21,992.09,1734.03,992.09z"/>
	</g>
</g>
<g>
	<g>
		<path class="st3" d="M217.65,563.26v-42h4.92L241.41,553h-2.64l18.6-31.74h4.92l0.06,42h-5.76l-0.06-32.94h1.38l-16.56,27.84
			h-2.76l-16.68-27.84h1.5v32.94H217.65z"/>
	</g>
</g>
<g>
	<g>
		<path class="st3" d="M228.48,780.26v-42h6v36.78h22.74v5.22H228.48z"/>
	</g>
</g>
<g>
	<g>
		<path class="st3" d="M202.77,997.26l17.46-23.82v4.62l-16.5-22.8h6.84l13.08,17.94l-2.7,0.06l13.02-18h6.54l-16.38,22.44v-4.32
			l17.46,23.88h-6.9l-13.92-19.14h2.64l-13.74,19.14H202.77z"/>
		<path class="st3" d="M248.67,997.26v-42h6v36.78h22.74v5.22H248.67z"/>
	</g>
</g>
<g>
	<g>
		<path class="st3" d="M620.94,130.26l19.02-42h5.94l19.08,42h-6.3L641.7,91.62h2.4l-16.98,38.64H620.94z M629.04,119.76l1.62-4.8
			h23.64l1.74,4.8H629.04z"/>
		<path class="st3" d="M670.38,130.26v-31.8h5.52v8.58l-0.9-2.28c1.04-2.08,2.64-3.7,4.8-4.86c2.16-1.16,4.68-1.74,7.56-1.74
			c2.6,0,4.89,0.5,6.87,1.5c1.98,1,3.53,2.52,4.65,4.56c1.12,2.04,1.68,4.62,1.68,7.74v18.3h-5.76v-17.64c0-3.08-0.75-5.4-2.25-6.96
			s-3.61-2.34-6.33-2.34c-2.04,0-3.82,0.4-5.34,1.2c-1.52,0.8-2.69,1.98-3.51,3.54c-0.82,1.56-1.23,3.5-1.23,5.82v16.38H670.38z"/>
		<path class="st3" d="M725.1,130.62c-3.24,0-6.13-0.7-8.67-2.1c-2.54-1.4-4.53-3.32-5.97-5.76c-1.44-2.44-2.16-5.24-2.16-8.4
			c0-3.16,0.72-5.96,2.16-8.4c1.44-2.44,3.43-4.35,5.97-5.73c2.54-1.38,5.43-2.07,8.67-2.07c2.88,0,5.45,0.57,7.71,1.71
			c2.26,1.14,4.01,2.83,5.25,5.07l-4.38,2.82c-1.04-1.56-2.31-2.71-3.81-3.45c-1.5-0.74-3.11-1.11-4.83-1.11
			c-2.08,0-3.94,0.46-5.58,1.38c-1.64,0.92-2.94,2.21-3.9,3.87c-0.96,1.66-1.44,3.63-1.44,5.91c0,2.28,0.48,4.26,1.44,5.94
			c0.96,1.68,2.26,2.98,3.9,3.9c1.64,0.92,3.5,1.38,5.58,1.38c1.72,0,3.33-0.37,4.83-1.11c1.5-0.74,2.77-1.89,3.81-3.45l4.38,2.76
			c-1.24,2.2-2.99,3.89-5.25,5.07C730.55,130.03,727.98,130.62,725.1,130.62z"/>
		<path class="st3" d="M745.5,130.26V85.74h5.76v21.3l-1.14-2.28c1.04-2.08,2.64-3.7,4.8-4.86c2.16-1.16,4.68-1.74,7.56-1.74
			c2.6,0,4.89,0.5,6.87,1.5c1.98,1,3.53,2.52,4.65,4.56c1.12,2.04,1.68,4.62,1.68,7.74v18.3h-5.76v-17.64c0-3.08-0.75-5.4-2.25-6.96
			s-3.61-2.34-6.33-2.34c-2.04,0-3.82,0.4-5.34,1.2c-1.52,0.8-2.69,1.98-3.51,3.54c-0.82,1.56-1.23,3.5-1.23,5.82v16.38H745.5z"/>
		<path class="st3" d="M799.98,130.62c-3.16,0-5.99-0.7-8.49-2.1c-2.5-1.4-4.47-3.33-5.91-5.79c-1.44-2.46-2.16-5.25-2.16-8.37
			c0-3.16,0.72-5.95,2.16-8.37c1.44-2.42,3.4-4.33,5.88-5.73c2.48-1.4,5.32-2.1,8.52-2.1c3.16,0,5.99,0.69,8.49,2.07
			c2.5,1.38,4.46,3.29,5.88,5.73c1.42,2.44,2.13,5.24,2.13,8.4c0,3.16-0.71,5.96-2.13,8.4c-1.42,2.44-3.38,4.36-5.88,5.76
			C805.97,129.92,803.14,130.62,799.98,130.62z M799.98,125.58c2.04,0,3.87-0.46,5.49-1.38c1.62-0.92,2.89-2.23,3.81-3.93
			c0.92-1.7,1.38-3.67,1.38-5.91c0-2.28-0.46-4.25-1.38-5.91c-0.92-1.66-2.19-2.95-3.81-3.87c-1.62-0.92-3.45-1.38-5.49-1.38
			s-3.86,0.46-5.46,1.38c-1.6,0.92-2.88,2.21-3.84,3.87c-0.96,1.66-1.44,3.63-1.44,5.91c0,2.24,0.48,4.21,1.44,5.91
			c0.96,1.7,2.24,3.01,3.84,3.93C796.12,125.12,797.94,125.58,799.98,125.58z"/>
	</g>
</g>
<g>
	<g>
		<path class="st3" d="M1118.49,130.26v-42h6v36.78h22.74v5.22H1118.49z"/>
		<path class="st3" d="M1162.59,130.62c-2.36,0-4.43-0.4-6.21-1.2c-1.78-0.8-3.15-1.91-4.11-3.33c-0.96-1.42-1.44-3.03-1.44-4.83
			c0-1.72,0.41-3.28,1.23-4.68c0.82-1.4,2.16-2.52,4.02-3.36c1.86-0.84,4.37-1.26,7.53-1.26h10.08v4.14h-9.84
			c-2.88,0-4.82,0.48-5.82,1.44c-1,0.96-1.5,2.12-1.5,3.48c0,1.56,0.62,2.81,1.86,3.75c1.24,0.94,2.96,1.41,5.16,1.41
			c2.16,0,4.05-0.48,5.67-1.44c1.62-0.96,2.79-2.36,3.51-4.2l1.14,3.96c-0.76,1.88-2.1,3.37-4.02,4.47
			C1167.93,130.07,1165.51,130.62,1162.59,130.62z M1173.03,130.26v-6.72l-0.3-1.26v-11.46c0-2.44-0.71-4.33-2.13-5.67
			c-1.42-1.34-3.55-2.01-6.39-2.01c-1.88,0-3.72,0.31-5.52,0.93c-1.8,0.62-3.32,1.45-4.56,2.49l-2.4-4.32
			c1.64-1.32,3.61-2.33,5.91-3.03c2.3-0.7,4.71-1.05,7.23-1.05c4.36,0,7.72,1.06,10.08,3.18c2.36,2.12,3.54,5.36,3.54,9.72v19.2
			H1173.03z"/>
		<path class="st3" d="M1189.17,130.26v-31.8h5.52v8.64l-0.54-2.16c0.88-2.2,2.36-3.88,4.44-5.04c2.08-1.16,4.64-1.74,7.68-1.74
			v5.58c-0.24-0.04-0.47-0.06-0.69-0.06c-0.22,0-0.43,0-0.63,0c-3.08,0-5.52,0.92-7.32,2.76c-1.8,1.84-2.7,4.5-2.7,7.98v15.84
			H1189.17z"/>
		<path class="st3" d="M1226.97,128.94c-3.08,0-5.83-0.65-8.25-1.95c-2.42-1.3-4.34-3.11-5.76-5.43c-1.42-2.32-2.13-5-2.13-8.04
			c0-3.08,0.71-5.77,2.13-8.07c1.42-2.3,3.34-4.09,5.76-5.37c2.42-1.28,5.17-1.92,8.25-1.92c2.72,0,5.2,0.55,7.44,1.65
			c2.24,1.1,4.03,2.79,5.37,5.07c1.34,2.28,2.01,5.16,2.01,8.64c0,3.44-0.67,6.3-2.01,8.58c-1.34,2.28-3.13,3.99-5.37,5.13
			C1232.17,128.37,1229.69,128.94,1226.97,128.94z M1227.69,142.26c-2.92,0-5.75-0.41-8.49-1.23c-2.74-0.82-4.97-1.99-6.69-3.51
			l2.76-4.44c1.48,1.28,3.3,2.29,5.46,3.03c2.16,0.74,4.42,1.11,6.78,1.11c3.76,0,6.52-0.88,8.28-2.64
			c1.76-1.76,2.64-4.44,2.64-8.04v-6.72l0.6-6.3l-0.3-6.36v-8.7h5.46v27.48c0,5.6-1.4,9.72-4.2,12.36S1233.09,142.26,1227.69,142.26
			z M1227.63,123.9c2.12,0,4-0.44,5.64-1.32c1.64-0.88,2.93-2.1,3.87-3.66s1.41-3.36,1.41-5.4c0-2.04-0.47-3.84-1.41-5.4
			s-2.23-2.77-3.87-3.63c-1.64-0.86-3.52-1.29-5.64-1.29c-2.12,0-4.01,0.43-5.67,1.29c-1.66,0.86-2.96,2.07-3.9,3.63
			s-1.41,3.36-1.41,5.4c0,2.04,0.47,3.84,1.41,5.4s2.24,2.78,3.9,3.66C1223.62,123.46,1225.51,123.9,1227.63,123.9z"/>
		<path class="st3" d="M1268.79,130.62c-3.16,0-5.99-0.7-8.49-2.1c-2.5-1.4-4.47-3.33-5.91-5.79c-1.44-2.46-2.16-5.25-2.16-8.37
			c0-3.16,0.72-5.95,2.16-8.37c1.44-2.42,3.4-4.33,5.88-5.73c2.48-1.4,5.32-2.1,8.52-2.1c3.16,0,5.99,0.69,8.49,2.07
			c2.5,1.38,4.46,3.29,5.88,5.73c1.42,2.44,2.13,5.24,2.13,8.4c0,3.16-0.71,5.96-2.13,8.4c-1.42,2.44-3.38,4.36-5.88,5.76
			C1274.78,129.92,1271.95,130.62,1268.79,130.62z M1268.79,125.58c2.04,0,3.87-0.46,5.49-1.38c1.62-0.92,2.89-2.23,3.81-3.93
			c0.92-1.7,1.38-3.67,1.38-5.91c0-2.28-0.46-4.25-1.38-5.91c-0.92-1.66-2.19-2.95-3.81-3.87c-1.62-0.92-3.45-1.38-5.49-1.38
			c-2.04,0-3.86,0.46-5.46,1.38c-1.6,0.92-2.88,2.21-3.84,3.87c-0.96,1.66-1.44,3.63-1.44,5.91c0,2.24,0.48,4.21,1.44,5.91
			c0.96,1.7,2.24,3.01,3.84,3.93C1264.93,125.12,1266.75,125.58,1268.79,125.58z"/>
	</g>
</g>
<g>
	<g>
		<path class="st3" d="M1533.36,100.26v-42h6v42H1533.36z M1538.76,81.54v-5.22h25.26v5.22H1538.76z M1563.48,100.26v-42h6v42
			H1563.48z"/>
		<path class="st3" d="M1594.86,100.62c-3.16,0-5.99-0.7-8.49-2.1c-2.5-1.4-4.47-3.33-5.91-5.79c-1.44-2.46-2.16-5.25-2.16-8.37
			c0-3.16,0.72-5.95,2.16-8.37c1.44-2.42,3.4-4.33,5.88-5.73c2.48-1.4,5.32-2.1,8.52-2.1c3.16,0,5.99,0.69,8.49,2.07
			c2.5,1.38,4.46,3.29,5.88,5.73c1.42,2.44,2.13,5.24,2.13,8.4c0,3.16-0.71,5.96-2.13,8.4c-1.42,2.44-3.38,4.36-5.88,5.76
			C1600.85,99.92,1598.02,100.62,1594.86,100.62z M1594.86,95.58c2.04,0,3.87-0.46,5.49-1.38c1.62-0.92,2.89-2.23,3.81-3.93
			c0.92-1.7,1.38-3.67,1.38-5.91c0-2.28-0.46-4.25-1.38-5.91c-0.92-1.66-2.19-2.95-3.81-3.87c-1.62-0.92-3.45-1.38-5.49-1.38
			s-3.86,0.46-5.46,1.38c-1.6,0.92-2.88,2.21-3.84,3.87c-0.96,1.66-1.44,3.63-1.44,5.91c0,2.24,0.48,4.21,1.44,5.91
			c0.96,1.7,2.24,3.01,3.84,3.93C1591,95.12,1592.82,95.58,1594.86,95.58z"/>
		<path class="st3" d="M1619.34,100.26v-31.8h5.52v8.46l-0.9-2.16c1-2.08,2.54-3.7,4.62-4.86c2.08-1.16,4.5-1.74,7.26-1.74
			c3.04,0,5.66,0.75,7.86,2.25s3.64,3.77,4.32,6.81l-2.34-0.96c0.96-2.44,2.64-4.4,5.04-5.88c2.4-1.48,5.2-2.22,8.4-2.22
			c2.56,0,4.82,0.5,6.78,1.5c1.96,1,3.49,2.52,4.59,4.56c1.1,2.04,1.65,4.62,1.65,7.74v18.3h-5.76V82.62c0-3.08-0.72-5.4-2.16-6.96
			c-1.44-1.56-3.46-2.34-6.06-2.34c-1.92,0-3.6,0.4-5.04,1.2c-1.44,0.8-2.55,1.98-3.33,3.54c-0.78,1.56-1.17,3.5-1.17,5.82v16.38
			h-5.76V82.62c0-3.08-0.71-5.4-2.13-6.96s-3.45-2.34-6.09-2.34c-1.88,0-3.54,0.4-4.98,1.2c-1.44,0.8-2.56,1.98-3.36,3.54
			c-0.8,1.56-1.2,3.5-1.2,5.82v16.38H1619.34z"/>
		<path class="st3" d="M1682.76,100.26V55.74h5.76v21.18l-0.6,7.38l0.36,7.38v8.58H1682.76z M1699.62,100.62
			c-2.72,0-5.17-0.61-7.35-1.83c-2.18-1.22-3.9-3.03-5.16-5.43c-1.26-2.4-1.89-5.4-1.89-9s0.65-6.6,1.95-9s3.04-4.2,5.22-5.4
			c2.18-1.2,4.59-1.8,7.23-1.8c3.12,0,5.88,0.68,8.28,2.04c2.4,1.36,4.3,3.25,5.7,5.67c1.4,2.42,2.1,5.25,2.1,8.49
			c0,3.24-0.7,6.08-2.1,8.52c-1.4,2.44-3.3,4.34-5.7,5.7C1705.5,99.94,1702.74,100.62,1699.62,100.62z M1699.14,95.58
			c2.04,0,3.87-0.46,5.49-1.38c1.62-0.92,2.9-2.23,3.84-3.93c0.94-1.7,1.41-3.67,1.41-5.91c0-2.28-0.47-4.25-1.41-5.91
			c-0.94-1.66-2.22-2.95-3.84-3.87c-1.62-0.92-3.45-1.38-5.49-1.38c-2,0-3.81,0.46-5.43,1.38c-1.62,0.92-2.9,2.21-3.84,3.87
			c-0.94,1.66-1.41,3.63-1.41,5.91c0,2.24,0.47,4.21,1.41,5.91c0.94,1.7,2.22,3.01,3.84,3.93
			C1695.33,95.12,1697.14,95.58,1699.14,95.58z"/>
		<path class="st3" d="M1723.68,100.26v-31.8h5.52v8.64l-0.54-2.16c0.88-2.2,2.36-3.88,4.44-5.04c2.08-1.16,4.64-1.74,7.68-1.74
			v5.58c-0.24-0.04-0.47-0.06-0.69-0.06c-0.22,0-0.43,0-0.63,0c-3.08,0-5.52,0.92-7.32,2.76c-1.8,1.84-2.7,4.5-2.7,7.98v15.84
			H1723.68z"/>
		<path class="st3" d="M1761.9,100.62c-3.16,0-5.99-0.7-8.49-2.1c-2.5-1.4-4.47-3.33-5.91-5.79c-1.44-2.46-2.16-5.25-2.16-8.37
			c0-3.16,0.72-5.95,2.16-8.37c1.44-2.42,3.4-4.33,5.88-5.73c2.48-1.4,5.32-2.1,8.52-2.1c3.16,0,5.99,0.69,8.49,2.07
			c2.5,1.38,4.46,3.29,5.88,5.73c1.42,2.44,2.13,5.24,2.13,8.4c0,3.16-0.71,5.96-2.13,8.4c-1.42,2.44-3.38,4.36-5.88,5.76
			C1767.89,99.92,1765.06,100.62,1761.9,100.62z M1761.9,95.58c2.04,0,3.87-0.46,5.49-1.38c1.62-0.92,2.89-2.23,3.81-3.93
			c0.92-1.7,1.38-3.67,1.38-5.91c0-2.28-0.46-4.25-1.38-5.91c-0.92-1.66-2.19-2.95-3.81-3.87c-1.62-0.92-3.45-1.38-5.49-1.38
			s-3.86,0.46-5.46,1.38c-1.6,0.92-2.88,2.21-3.84,3.87c-0.96,1.66-1.44,3.63-1.44,5.91c0,2.24,0.48,4.21,1.44,5.91
			c0.96,1.7,2.24,3.01,3.84,3.93C1758.04,95.12,1759.86,95.58,1761.9,95.58z"/>
		<path class="st3" d="M1811.82,100.62c-2.36,0-4.43-0.4-6.21-1.2c-1.78-0.8-3.15-1.91-4.11-3.33c-0.96-1.42-1.44-3.03-1.44-4.83
			c0-1.72,0.41-3.28,1.23-4.68c0.82-1.4,2.16-2.52,4.02-3.36c1.86-0.84,4.37-1.26,7.53-1.26h10.08v4.14h-9.84
			c-2.88,0-4.82,0.48-5.82,1.44c-1,0.96-1.5,2.12-1.5,3.48c0,1.56,0.62,2.81,1.86,3.75c1.24,0.94,2.96,1.41,5.16,1.41
			c2.16,0,4.05-0.48,5.67-1.44c1.62-0.96,2.79-2.36,3.51-4.2l1.14,3.96c-0.76,1.88-2.1,3.37-4.02,4.47
			C1817.16,100.07,1814.74,100.62,1811.82,100.62z M1822.26,100.26v-6.72l-0.3-1.26V80.82c0-2.44-0.71-4.33-2.13-5.67
			c-1.42-1.34-3.55-2.01-6.39-2.01c-1.88,0-3.72,0.31-5.52,0.93c-1.8,0.62-3.32,1.45-4.56,2.49l-2.4-4.32
			c1.64-1.32,3.61-2.33,5.91-3.03c2.3-0.7,4.71-1.05,7.23-1.05c4.36,0,7.72,1.06,10.08,3.18c2.36,2.12,3.54,5.36,3.54,9.72v19.2
			H1822.26z"/>
		<path class="st3" d="M1576.74,160.26v-31.8h5.52v8.46l-0.9-2.16c1-2.08,2.54-3.7,4.62-4.86c2.08-1.16,4.5-1.74,7.26-1.74
			c3.04,0,5.66,0.75,7.86,2.25s3.64,3.77,4.32,6.81l-2.34-0.96c0.96-2.44,2.64-4.4,5.04-5.88c2.4-1.48,5.2-2.22,8.4-2.22
			c2.56,0,4.82,0.5,6.78,1.5c1.96,1,3.49,2.52,4.59,4.56c1.1,2.04,1.65,4.62,1.65,7.74v18.3h-5.76v-17.64c0-3.08-0.72-5.4-2.16-6.96
			c-1.44-1.56-3.46-2.34-6.06-2.34c-1.92,0-3.6,0.4-5.04,1.2c-1.44,0.8-2.55,1.98-3.33,3.54c-0.78,1.56-1.17,3.5-1.17,5.82v16.38
			h-5.76v-17.64c0-3.08-0.71-5.4-2.13-6.96s-3.45-2.34-6.09-2.34c-1.88,0-3.54,0.4-4.98,1.2c-1.44,0.8-2.56,1.98-3.36,3.54
			c-0.8,1.56-1.2,3.5-1.2,5.82v16.38H1576.74z"/>
		<path class="st3" d="M1649.46,160.62c-2.36,0-4.43-0.4-6.21-1.2c-1.78-0.8-3.15-1.91-4.11-3.33c-0.96-1.42-1.44-3.03-1.44-4.83
			c0-1.72,0.41-3.28,1.23-4.68c0.82-1.4,2.16-2.52,4.02-3.36c1.86-0.84,4.37-1.26,7.53-1.26h10.08v4.14h-9.84
			c-2.88,0-4.82,0.48-5.82,1.44c-1,0.96-1.5,2.12-1.5,3.48c0,1.56,0.62,2.81,1.86,3.75c1.24,0.94,2.96,1.41,5.16,1.41
			c2.16,0,4.05-0.48,5.67-1.44c1.62-0.96,2.79-2.36,3.51-4.2l1.14,3.96c-0.76,1.88-2.1,3.37-4.02,4.47
			C1654.8,160.07,1652.38,160.62,1649.46,160.62z M1659.9,160.26v-6.72l-0.3-1.26v-11.46c0-2.44-0.71-4.33-2.13-5.67
			c-1.42-1.34-3.55-2.01-6.39-2.01c-1.88,0-3.72,0.31-5.52,0.93c-1.8,0.62-3.32,1.45-4.56,2.49l-2.4-4.32
			c1.64-1.32,3.61-2.33,5.91-3.03c2.3-0.7,4.71-1.05,7.23-1.05c4.36,0,7.72,1.06,10.08,3.18c2.36,2.12,3.54,5.36,3.54,9.72v19.2
			H1659.9z"/>
		<path class="st3" d="M1676.04,160.26v-31.8h5.52v8.58l-0.9-2.28c1.04-2.08,2.64-3.7,4.8-4.86c2.16-1.16,4.68-1.74,7.56-1.74
			c2.6,0,4.89,0.5,6.87,1.5c1.98,1,3.53,2.52,4.65,4.56c1.12,2.04,1.68,4.62,1.68,7.74v18.3h-5.76v-17.64c0-3.08-0.75-5.4-2.25-6.96
			s-3.61-2.34-6.33-2.34c-2.04,0-3.82,0.4-5.34,1.2c-1.52,0.8-2.69,1.98-3.51,3.54c-0.82,1.56-1.23,3.5-1.23,5.82v16.38H1676.04z"/>
		<path class="st3" d="M1730.1,158.94c-3.08,0-5.83-0.65-8.25-1.95c-2.42-1.3-4.34-3.11-5.76-5.43c-1.42-2.32-2.13-5-2.13-8.04
			c0-3.08,0.71-5.77,2.13-8.07c1.42-2.3,3.34-4.09,5.76-5.37c2.42-1.28,5.17-1.92,8.25-1.92c2.72,0,5.2,0.55,7.44,1.65
			c2.24,1.1,4.03,2.79,5.37,5.07c1.34,2.28,2.01,5.16,2.01,8.64c0,3.44-0.67,6.3-2.01,8.58c-1.34,2.28-3.13,3.99-5.37,5.13
			C1735.3,158.37,1732.82,158.94,1730.1,158.94z M1730.82,172.26c-2.92,0-5.75-0.41-8.49-1.23c-2.74-0.82-4.97-1.99-6.69-3.51
			l2.76-4.44c1.48,1.28,3.3,2.29,5.46,3.03c2.16,0.74,4.42,1.11,6.78,1.11c3.76,0,6.52-0.88,8.28-2.64
			c1.76-1.76,2.64-4.44,2.64-8.04v-6.72l0.6-6.3l-0.3-6.36v-8.7h5.46v27.48c0,5.6-1.4,9.72-4.2,12.36
			C1740.32,170.94,1736.22,172.26,1730.82,172.26z M1730.76,153.9c2.12,0,4-0.44,5.64-1.32c1.64-0.88,2.93-2.1,3.87-3.66
			c0.94-1.56,1.41-3.36,1.41-5.4c0-2.04-0.47-3.84-1.41-5.4c-0.94-1.56-2.23-2.77-3.87-3.63c-1.64-0.86-3.52-1.29-5.64-1.29
			c-2.12,0-4.01,0.43-5.67,1.29c-1.66,0.86-2.96,2.07-3.9,3.63c-0.94,1.56-1.41,3.36-1.41,5.4c0,2.04,0.47,3.84,1.41,5.4
			c0.94,1.56,2.24,2.78,3.9,3.66C1726.75,153.46,1728.64,153.9,1730.76,153.9z"/>
		<path class="st3" d="M1767.6,160.62c-2.36,0-4.43-0.4-6.21-1.2c-1.78-0.8-3.15-1.91-4.11-3.33c-0.96-1.42-1.44-3.03-1.44-4.83
			c0-1.72,0.41-3.28,1.23-4.68c0.82-1.4,2.16-2.52,4.02-3.36c1.86-0.84,4.37-1.26,7.53-1.26h10.08v4.14h-9.84
			c-2.88,0-4.82,0.48-5.82,1.44c-1,0.96-1.5,2.12-1.5,3.48c0,1.56,0.62,2.81,1.86,3.75c1.24,0.94,2.96,1.41,5.16,1.41
			c2.16,0,4.05-0.48,5.67-1.44c1.62-0.96,2.79-2.36,3.51-4.2l1.14,3.96c-0.76,1.88-2.1,3.37-4.02,4.47
			C1772.94,160.07,1770.52,160.62,1767.6,160.62z M1778.04,160.26v-6.72l-0.3-1.26v-11.46c0-2.44-0.71-4.33-2.13-5.67
			c-1.42-1.34-3.55-2.01-6.39-2.01c-1.88,0-3.72,0.31-5.52,0.93c-1.8,0.62-3.32,1.45-4.56,2.49l-2.4-4.32
			c1.64-1.32,3.61-2.33,5.91-3.03c2.3-0.7,4.71-1.05,7.23-1.05c4.36,0,7.72,1.06,10.08,3.18c2.36,2.12,3.54,5.36,3.54,9.72v19.2
			H1778.04z"/>
	</g>
</g>
<g>
	<g>
		<path class="st3" d="M877.74,196c-1.14-1.82-2.02-3.93-2.64-6.31s-0.93-4.96-0.93-7.73c0-2.76,0.31-5.34,0.93-7.75
			c0.62-2.41,1.5-4.5,2.64-6.28h2.73c-1.2,2.12-2.08,4.33-2.64,6.64c-0.56,2.31-0.84,4.78-0.84,7.4c0,2.62,0.28,5.09,0.84,7.4
			c0.56,2.31,1.44,4.52,2.64,6.65H877.74z"/>
		<path class="st3" d="M891.09,190.36c-1.62,0-3.07-0.35-4.33-1.05c-1.27-0.7-2.27-1.66-2.99-2.88c-0.72-1.22-1.08-2.62-1.08-4.2
			c0-1.58,0.36-2.98,1.08-4.2c0.72-1.22,1.71-2.18,2.99-2.87c1.27-0.69,2.71-1.03,4.33-1.03c1.44,0,2.72,0.28,3.85,0.85
			c1.13,0.57,2,1.42,2.62,2.53l-2.19,1.41c-0.52-0.78-1.16-1.35-1.91-1.73c-0.75-0.37-1.56-0.55-2.42-0.55
			c-1.04,0-1.97,0.23-2.79,0.69c-0.82,0.46-1.47,1.1-1.95,1.94s-0.72,1.81-0.72,2.95c0,1.14,0.24,2.13,0.72,2.97
			s1.13,1.49,1.95,1.95c0.82,0.46,1.75,0.69,2.79,0.69c0.86,0,1.67-0.19,2.42-0.56c0.75-0.37,1.38-0.94,1.91-1.73l2.19,1.38
			c-0.62,1.1-1.5,1.95-2.62,2.54C893.82,190.07,892.53,190.36,891.09,190.36z"/>
		<path class="st3" d="M901.29,190.18v-15.9h2.76v4.23l-0.45-1.08c0.5-1.04,1.27-1.85,2.31-2.43c1.04-0.58,2.25-0.87,3.63-0.87
			c1.52,0,2.83,0.38,3.93,1.12c1.1,0.75,1.82,1.89,2.16,3.4l-1.17-0.48c0.48-1.22,1.32-2.2,2.52-2.94c1.2-0.74,2.6-1.11,4.2-1.11
			c1.28,0,2.41,0.25,3.39,0.75s1.75,1.26,2.3,2.28c0.55,1.02,0.82,2.31,0.82,3.87v9.15h-2.88v-8.82c0-1.54-0.36-2.7-1.08-3.48
			c-0.72-0.78-1.73-1.17-3.03-1.17c-0.96,0-1.8,0.2-2.52,0.6c-0.72,0.4-1.27,0.99-1.67,1.77c-0.39,0.78-0.58,1.75-0.58,2.91v8.19
			h-2.88v-8.82c0-1.54-0.36-2.7-1.07-3.48c-0.71-0.78-1.72-1.17-3.04-1.17c-0.94,0-1.77,0.2-2.49,0.6c-0.72,0.4-1.28,0.99-1.68,1.77
			c-0.4,0.78-0.6,1.75-0.6,2.91v8.19H901.29z"/>
		<path class="st3" d="M931.23,196c1.22-2.12,2.11-4.33,2.67-6.65c0.56-2.31,0.84-4.77,0.84-7.4c0-2.62-0.28-5.08-0.84-7.4
			c-0.56-2.31-1.45-4.52-2.67-6.64h2.73c1.18,1.78,2.07,3.88,2.69,6.28c0.61,2.41,0.92,5,0.92,7.75c0,2.76-0.31,5.34-0.92,7.73
			c-0.61,2.39-1.51,4.5-2.69,6.31H931.23z"/>
	</g>
</g>
<g>
	<g>
		<path class="st3" d="M1358.75,196c-1.14-1.82-2.02-3.93-2.64-6.31s-0.93-4.96-0.93-7.73c0-2.76,0.31-5.34,0.93-7.75
			c0.62-2.41,1.5-4.5,2.64-6.28h2.73c-1.2,2.12-2.08,4.33-2.64,6.64c-0.56,2.31-0.84,4.78-0.84,7.4c0,2.62,0.28,5.09,0.84,7.4
			c0.56,2.31,1.44,4.52,2.64,6.65H1358.75z"/>
		<path class="st3" d="M1372.09,190.36c-1.62,0-3.07-0.35-4.33-1.05c-1.27-0.7-2.26-1.66-2.99-2.88c-0.72-1.22-1.08-2.62-1.08-4.2
			c0-1.58,0.36-2.98,1.08-4.2c0.72-1.22,1.71-2.18,2.99-2.87c1.27-0.69,2.71-1.03,4.33-1.03c1.44,0,2.72,0.28,3.86,0.85
			c1.13,0.57,2,1.42,2.62,2.53l-2.19,1.41c-0.52-0.78-1.16-1.35-1.91-1.73c-0.75-0.37-1.55-0.55-2.42-0.55
			c-1.04,0-1.97,0.23-2.79,0.69s-1.47,1.1-1.95,1.94c-0.48,0.83-0.72,1.81-0.72,2.95c0,1.14,0.24,2.13,0.72,2.97
			c0.48,0.84,1.13,1.49,1.95,1.95s1.75,0.69,2.79,0.69c0.86,0,1.67-0.19,2.42-0.56c0.75-0.37,1.38-0.94,1.91-1.73l2.19,1.38
			c-0.62,1.1-1.5,1.95-2.62,2.54C1374.82,190.07,1373.54,190.36,1372.09,190.36z"/>
		<path class="st3" d="M1382.29,190.18v-15.9h2.76v4.23l-0.45-1.08c0.5-1.04,1.27-1.85,2.31-2.43c1.04-0.58,2.25-0.87,3.63-0.87
			c1.52,0,2.83,0.38,3.93,1.12s1.82,1.89,2.16,3.4l-1.17-0.48c0.48-1.22,1.32-2.2,2.52-2.94c1.2-0.74,2.6-1.11,4.2-1.11
			c1.28,0,2.41,0.25,3.39,0.75c0.98,0.5,1.75,1.26,2.3,2.28c0.55,1.02,0.82,2.31,0.82,3.87v9.15h-2.88v-8.82
			c0-1.54-0.36-2.7-1.08-3.48c-0.72-0.78-1.73-1.17-3.03-1.17c-0.96,0-1.8,0.2-2.52,0.6c-0.72,0.4-1.27,0.99-1.67,1.77
			c-0.39,0.78-0.58,1.75-0.58,2.91v8.19h-2.88v-8.82c0-1.54-0.36-2.7-1.07-3.48c-0.71-0.78-1.72-1.17-3.04-1.17
			c-0.94,0-1.77,0.2-2.49,0.6c-0.72,0.4-1.28,0.99-1.68,1.77c-0.4,0.78-0.6,1.75-0.6,2.91v8.19H1382.29z"/>
		<path class="st3" d="M1412.23,196c1.22-2.12,2.11-4.33,2.67-6.65c0.56-2.31,0.84-4.77,0.84-7.4c0-2.62-0.28-5.08-0.84-7.4
			c-0.56-2.31-1.45-4.52-2.67-6.64h2.73c1.18,1.78,2.08,3.88,2.69,6.28c0.61,2.41,0.92,5,0.92,7.75c0,2.76-0.31,5.34-0.92,7.73
			c-0.61,2.39-1.51,4.5-2.69,6.31H1412.23z"/>
	</g>
</g>
<g>
	<g>
		<path class="st3" d="M1839.75,196c-1.14-1.82-2.02-3.93-2.64-6.31s-0.93-4.96-0.93-7.73c0-2.76,0.31-5.34,0.93-7.75
			c0.62-2.41,1.5-4.5,2.64-6.28h2.73c-1.2,2.12-2.08,4.33-2.64,6.64c-0.56,2.31-0.84,4.78-0.84,7.4c0,2.62,0.28,5.09,0.84,7.4
			c0.56,2.31,1.44,4.52,2.64,6.65H1839.75z"/>
		<path class="st3" d="M1853.09,190.36c-1.62,0-3.07-0.35-4.33-1.05c-1.27-0.7-2.26-1.66-2.99-2.88c-0.72-1.22-1.08-2.62-1.08-4.2
			c0-1.58,0.36-2.98,1.08-4.2c0.72-1.22,1.71-2.18,2.99-2.87c1.27-0.69,2.71-1.03,4.33-1.03c1.44,0,2.72,0.28,3.86,0.85
			c1.13,0.57,2,1.42,2.62,2.53l-2.19,1.41c-0.52-0.78-1.16-1.35-1.91-1.73c-0.75-0.37-1.55-0.55-2.42-0.55
			c-1.04,0-1.97,0.23-2.79,0.69s-1.47,1.1-1.95,1.94c-0.48,0.83-0.72,1.81-0.72,2.95c0,1.14,0.24,2.13,0.72,2.97
			c0.48,0.84,1.13,1.49,1.95,1.95s1.75,0.69,2.79,0.69c0.86,0,1.67-0.19,2.42-0.56c0.75-0.37,1.38-0.94,1.91-1.73l2.19,1.38
			c-0.62,1.1-1.5,1.95-2.62,2.54C1855.82,190.07,1854.54,190.36,1853.09,190.36z"/>
		<path class="st3" d="M1863.29,190.18v-15.9h2.76v4.23l-0.45-1.08c0.5-1.04,1.27-1.85,2.31-2.43c1.04-0.58,2.25-0.87,3.63-0.87
			c1.52,0,2.83,0.38,3.93,1.12s1.82,1.89,2.16,3.4l-1.17-0.48c0.48-1.22,1.32-2.2,2.52-2.94c1.2-0.74,2.6-1.11,4.2-1.11
			c1.28,0,2.41,0.25,3.39,0.75c0.98,0.5,1.75,1.26,2.3,2.28c0.55,1.02,0.82,2.31,0.82,3.87v9.15h-2.88v-8.82
			c0-1.54-0.36-2.7-1.08-3.48c-0.72-0.78-1.73-1.17-3.03-1.17c-0.96,0-1.8,0.2-2.52,0.6c-0.72,0.4-1.27,0.99-1.67,1.77
			c-0.39,0.78-0.58,1.75-0.58,2.91v8.19h-2.88v-8.82c0-1.54-0.36-2.7-1.07-3.48c-0.71-0.78-1.72-1.17-3.04-1.17
			c-0.94,0-1.77,0.2-2.49,0.6c-0.72,0.4-1.28,0.99-1.68,1.77c-0.4,0.78-0.6,1.75-0.6,2.91v8.19H1863.29z"/>
		<path class="st3" d="M1893.23,196c1.22-2.12,2.11-4.33,2.67-6.65c0.56-2.31,0.84-4.77,0.84-7.4c0-2.62-0.28-5.08-0.84-7.4
			c-0.56-2.31-1.45-4.52-2.67-6.64h2.73c1.18,1.78,2.08,3.88,2.69,6.28c0.61,2.41,0.92,5,0.92,7.75c0,2.76-0.31,5.34-0.92,7.73
			c-0.61,2.39-1.51,4.5-2.69,6.31H1893.23z"/>
	</g>
</g>
</svg>
