<?xml version="1.0" encoding="utf-8"?>
<!-- Generator: Adobe Illustrator 28.0.0, SVG Export Plug-In . SVG Version: 6.00 Build 0)  -->
<svg version="1.1" id="Capa_1" xmlns="http://www.w3.org/2000/svg" xmlns:xlink="http://www.w3.org/1999/xlink" x="0px" y="0px"
	 viewBox="0 0 110 135" style="enable-background:new 0 0 110 135;" xml:space="preserve">
<path d="M55,20c-8,0-14.4,6.4-14.4,14.4v7.2H30c-1.3,0-2.4,1-2.5,2.3l-2.9,49.4c-0.2,3.6,2.7,6.6,6.3,6.6h48.3
	c3.6,0,6.5-3.1,6.3-6.6l-2.9-49.4c-0.1-1.3-1.2-2.3-2.5-2.3H69.4v-7.2C69.4,26.4,63,20,55,20L55,20z M55,23.1
	c6.3,0,11.4,5,11.4,11.3v7.2H43.6v-7.2C43.6,28.1,48.7,23.1,55,23.1z M30.5,44.7h10v7.2c0,0.4,0.2,0.8,0.4,1.1
	c0.3,0.3,0.7,0.4,1.1,0.4s0.8-0.2,1.1-0.4c0.3-0.3,0.4-0.7,0.4-1.1v-7.2h22.7v7.2c0,0.4,0.2,0.8,0.4,1.1s0.7,0.4,1.1,0.4
	c0.4,0,0.8-0.2,1.1-0.4c0.3-0.3,0.4-0.7,0.4-1.1v-7.2h10l2.9,48.9c0.1,1.9-1.3,3.4-3.2,3.4H30.8c-1.9,0-3.3-1.5-3.2-3.4L30.5,44.7z"
	/>
</svg>
