<?xml version="1.0" encoding="utf-8"?>
<!-- Generator: Adobe Illustrator 28.0.0, SVG Export Plug-In . SVG Version: 6.00 Build 0)  -->
<svg version="1.1" id="Capa_1" xmlns="http://www.w3.org/2000/svg" xmlns:xlink="http://www.w3.org/1999/xlink" x="0px" y="0px"
	 viewBox="0 0 110 135" style="enable-background:new 0 0 110 135;" xml:space="preserve">
<path d="M80,16.2H30c-10.3,0-18.8,8.4-18.8,18.8v50c0,10.3,8.4,18.8,18.8,18.8h50c10.3,0,18.8-8.4,18.8-18.8V35
	C98.8,24.7,90.3,16.2,80,16.2z M92.5,85c0,6.9-5.6,12.5-12.5,12.5H30c-6.9,0-12.5-5.6-12.5-12.5V35c0-6.9,5.6-12.5,12.5-12.5h50
	c6.9,0,12.5,5.6,12.5,12.5V85z M55,35c-13.8,0-25,11.2-25,25s11.2,25,25,25s25-11.2,25-25S68.8,35,55,35z M55,78.7
	c-10.3,0-18.8-8.4-18.8-18.8S44.7,41.2,55,41.2S73.8,49.7,73.8,60S65.3,78.7,55,78.7z M82.2,32.8c0.6,0.6,0.9,1.4,0.9,2.2
	s-0.3,1.6-0.9,2.2c-0.6,0.6-1.4,0.9-2.2,0.9s-1.6-0.3-2.2-0.9c-0.6-0.6-0.9-1.4-0.9-2.2s0.3-1.6,0.9-2.2
	C78.9,31.7,81,31.6,82.2,32.8L82.2,32.8z"/>
</svg>
